<?xml version="1.0" encoding="UTF-8" standalone="no"?>
<!-- Generator: Adobe Illustrator 15.0.0, SVG Export Plug-In . SVG Version: 6.00 Build 0)  -->

<svg
   version="1.1"
   id="Warstwa_1"
   x="0px"
   y="0px"
   width="673.38757"
   height="131.93198"
   viewBox="0 0 673.38756 131.93198"
   enable-background="new 0 0 841.89 161"
   xml:space="preserve"
   sodipodi:docname="logo-edumocni.svg"
   inkscape:version="1.4 (86a8ad7, 2024-10-11)"
   xmlns:inkscape="http://www.inkscape.org/namespaces/inkscape"
   xmlns:sodipodi="http://sodipodi.sourceforge.net/DTD/sodipodi-0.dtd"
   xmlns:xlink="http://www.w3.org/1999/xlink"
   xmlns="http://www.w3.org/2000/svg"
   xmlns:svg="http://www.w3.org/2000/svg"><sodipodi:namedview
   id="namedview1"
   pagecolor="#ffffff"
   bordercolor="#666666"
   borderopacity="1.0"
   inkscape:showpageshadow="2"
   inkscape:pageopacity="0.0"
   inkscape:pagecheckerboard="0"
   inkscape:deskcolor="#d1d1d1"
   inkscape:zoom="1.8649314"
   inkscape:cx="287.14193"
   inkscape:cy="64.077423"
   inkscape:window-width="1920"
   inkscape:window-height="1009"
   inkscape:window-x="1912"
   inkscape:window-y="-8"
   inkscape:window-maximized="1"
   inkscape:current-layer="Warstwa_1" /><defs
   id="defs19" />
<g
   id="g15"
   style="fill:#424242;fill-opacity:1"
   transform="translate(-74.25142,-15.463)">
	<path
   fill="#0995CF"
   d="m 180.334,93.535 c 0,-3.384 0.691,-6.62 2.073,-9.709 1.382,-3.088 3.37,-5.817 5.965,-8.186 2.595,-2.368 5.775,-4.258 9.54,-5.668 3.765,-1.41 8.044,-2.115 12.839,-2.115 4.766,0 9.06,0.712 12.882,2.136 3.821,1.425 7.065,3.377 9.73,5.859 2.665,2.482 4.71,5.401 6.134,8.756 1.424,3.358 2.137,6.954 2.137,10.789 0,0.479 -0.008,0.994 -0.022,1.544 -0.014,0.55 -0.049,1.05 -0.105,1.5 h -47.212 c 0.535,1.496 1.403,2.863 2.601,4.104 1.199,1.241 2.701,2.312 4.506,3.215 1.804,0.903 3.892,1.602 6.261,2.095 2.369,0.494 4.992,0.74 7.869,0.74 2.877,0 5.739,-0.303 8.588,-0.91 2.848,-0.606 5.569,-1.374 8.164,-2.306 l 4.231,9.562 c -1.636,0.761 -3.293,1.432 -4.971,2.01 -1.678,0.577 -3.426,1.057 -5.246,1.438 -1.819,0.38 -3.722,0.669 -5.711,0.866 -1.988,0.197 -4.082,0.296 -6.282,0.296 -5.613,0 -10.534,-0.676 -14.765,-2.03 -4.23,-1.354 -7.77,-3.2 -10.618,-5.542 -2.849,-2.34 -4.991,-5.09 -6.43,-8.25 -1.437,-3.157 -2.158,-6.556 -2.158,-10.194 m 48.017,-4.865 c -0.452,-1.382 -1.149,-2.672 -2.094,-3.87 -0.945,-1.199 -2.122,-2.242 -3.532,-3.131 -1.411,-0.889 -3.046,-1.587 -4.908,-2.095 -1.861,-0.507 -3.906,-0.76 -6.134,-0.76 -2.369,0 -4.526,0.267 -6.473,0.802 -1.945,0.537 -3.652,1.256 -5.118,2.158 -1.467,0.903 -2.687,1.947 -3.66,3.131 -0.973,1.184 -1.685,2.44 -2.136,3.765 z"
   id="path1"
   style="fill:#424242;fill-opacity:1" />
	<path
   fill="#FAA621"
   d="m 252.537,93.916 c 0,-3.977 0.747,-7.565 2.242,-10.767 1.495,-3.201 3.561,-5.936 6.198,-8.207 2.636,-2.27 5.767,-4.019 9.391,-5.246 3.624,-1.226 7.552,-1.84 11.783,-1.84 1.804,0 3.588,0.113 5.351,0.339 1.762,0.226 3.454,0.536 5.076,0.93 1.621,0.396 3.145,0.868 4.569,1.417 1.424,0.551 2.686,1.15 3.786,1.799 v -23.86 h 12.522 v 70.183 h -12.522 v -4.696 c -1.1,0.761 -2.397,1.481 -3.892,2.157 -1.494,0.678 -3.102,1.27 -4.823,1.777 -1.72,0.508 -3.504,0.91 -5.351,1.206 -1.847,0.296 -3.673,0.443 -5.478,0.443 -4.231,0 -8.116,-0.62 -11.655,-1.861 -3.54,-1.24 -6.579,-2.989 -9.117,-5.245 -2.538,-2.256 -4.52,-4.957 -5.944,-8.102 -1.424,-3.143 -2.136,-6.619 -2.136,-10.427 m 13.157,0 c 0,2.003 0.401,3.892 1.206,5.669 0.803,1.775 1.96,3.335 3.468,4.674 1.509,1.34 3.327,2.397 5.457,3.174 2.13,0.775 4.52,1.163 7.171,1.163 1.693,0 3.385,-0.162 5.077,-0.487 1.692,-0.323 3.321,-0.782 4.886,-1.374 1.566,-0.593 3.031,-1.312 4.4,-2.157 1.367,-0.849 2.559,-1.791 3.574,-2.834 V 84.439 c -1.269,-1.014 -2.609,-1.875 -4.018,-2.58 -1.411,-0.704 -2.849,-1.283 -4.316,-1.735 -1.467,-0.45 -2.947,-0.782 -4.442,-0.994 -1.495,-0.211 -2.947,-0.317 -4.357,-0.317 -2.877,0 -5.436,0.388 -7.678,1.164 -2.242,0.776 -4.132,1.84 -5.669,3.194 -1.537,1.353 -2.715,2.947 -3.532,4.779 -0.819,1.834 -1.227,3.822 -1.227,5.966"
   id="path2"
   style="fill:#424242;fill-opacity:1" />
	<path
   fill="#EF3961"
   d="m 330.069,68.702 h 12.479 v 24.367 c 0,2.314 0.254,4.422 0.762,6.325 0.508,1.903 1.375,3.532 2.602,4.886 1.226,1.354 2.862,2.405 4.907,3.151 2.044,0.748 4.59,1.121 7.636,1.121 1.439,0 2.898,-0.154 4.379,-0.465 1.48,-0.31 2.898,-0.74 4.251,-1.29 1.354,-0.551 2.615,-1.205 3.786,-1.968 1.171,-0.761 2.179,-1.593 3.025,-2.496 V 68.702 h 12.522 v 49.962 h -12.522 v -4.273 c -3.074,1.833 -6.162,3.146 -9.264,3.936 -3.103,0.788 -6.05,1.184 -8.842,1.184 -4.569,0 -8.482,-0.55 -11.74,-1.649 -3.257,-1.101 -5.922,-2.701 -7.995,-4.802 -2.073,-2.101 -3.59,-4.681 -4.548,-7.741 -0.959,-3.061 -1.438,-6.552 -1.438,-10.47 z"
   id="path3"
   style="fill:#424242;fill-opacity:1" />
	<path
   fill="#58595B"
   d="m 403.963,68.745 h 12.521 v 4.23 c 3.131,-1.917 6.184,-3.25 9.16,-3.997 2.976,-0.747 5.888,-1.121 8.736,-1.121 3.976,0 7.628,0.634 10.957,1.904 3.327,1.268 6.177,3.187 8.546,5.753 1.832,-1.41 3.637,-2.602 5.414,-3.575 1.777,-0.973 3.554,-1.762 5.33,-2.369 1.777,-0.606 3.582,-1.043 5.416,-1.311 1.832,-0.268 3.723,-0.402 5.668,-0.402 4.089,0 7.799,0.557 11.126,1.671 3.328,1.114 6.17,2.771 8.525,4.97 2.354,2.201 4.173,4.944 5.456,8.228 1.283,3.287 1.925,7.086 1.925,11.402 v 24.537 H 490.264 V 96.158 c 0,-2.735 -0.388,-5.182 -1.163,-7.339 -0.776,-2.157 -1.861,-3.978 -3.257,-5.458 -1.397,-1.481 -3.062,-2.608 -4.993,-3.384 -1.932,-0.775 -4.054,-1.163 -6.366,-1.163 -1.27,0 -2.566,0.12 -3.892,0.359 -1.326,0.24 -2.617,0.614 -3.871,1.121 -1.256,0.508 -2.433,1.15 -3.532,1.925 -1.1,0.776 -2.059,1.686 -2.877,2.729 v 33.716 H 447.834 V 96.158 c 0,-2.735 -0.389,-5.182 -1.164,-7.339 -0.775,-2.157 -1.861,-3.978 -3.257,-5.458 -1.396,-1.481 -3.075,-2.608 -5.035,-3.384 -1.96,-0.775 -4.11,-1.163 -6.451,-1.163 -1.438,0 -2.884,0.148 -4.336,0.443 -1.453,0.297 -2.85,0.713 -4.188,1.248 -1.34,0.537 -2.596,1.186 -3.766,1.947 -1.171,0.761 -2.221,1.622 -3.153,2.581 v 33.631 h -12.521 z"
   id="path4"
   style="fill:#424242;fill-opacity:1" />
	<path
   fill="#58595B"
   d="m 516.777,93.704 c 0,-3.581 0.725,-6.937 2.178,-10.068 1.452,-3.131 3.525,-5.866 6.219,-8.207 2.693,-2.341 5.951,-4.188 9.773,-5.542 3.82,-1.354 8.114,-2.031 12.881,-2.031 4.767,0 9.061,0.677 12.882,2.031 3.821,1.354 7.079,3.201 9.772,5.542 2.692,2.341 4.766,5.076 6.219,8.207 1.452,3.131 2.179,6.487 2.179,10.068 0,3.582 -0.727,6.937 -2.179,10.068 -1.453,3.131 -3.526,5.867 -6.219,8.207 -2.693,2.342 -5.951,4.188 -9.772,5.542 -3.821,1.354 -8.115,2.03 -12.882,2.03 -4.767,0 -9.061,-0.676 -12.881,-2.03 -3.822,-1.354 -7.08,-3.2 -9.773,-5.542 -2.693,-2.34 -4.767,-5.076 -6.219,-8.207 -1.453,-3.131 -2.178,-6.486 -2.178,-10.068 m 13.157,0 c 0,2.003 0.401,3.899 1.206,5.69 0.804,1.792 1.974,3.37 3.511,4.738 1.537,1.368 3.412,2.453 5.626,3.257 2.214,0.804 4.731,1.206 7.552,1.206 2.821,0 5.336,-0.402 7.552,-1.206 2.213,-0.804 4.089,-1.889 5.626,-3.257 1.537,-1.368 2.708,-2.946 3.511,-4.738 0.805,-1.792 1.206,-3.688 1.206,-5.69 0,-2.002 -0.401,-3.906 -1.206,-5.711 -0.803,-1.805 -1.974,-3.391 -3.511,-4.76 -1.537,-1.367 -3.413,-2.453 -5.626,-3.257 -2.216,-0.803 -4.731,-1.206 -7.552,-1.206 -2.821,0 -5.338,0.403 -7.552,1.206 -2.214,0.804 -4.089,1.89 -5.626,3.257 -1.537,1.369 -2.707,2.955 -3.511,4.76 -0.805,1.805 -1.206,3.709 -1.206,5.711"
   id="path5"
   style="fill:#424242;fill-opacity:1" />
	<path
   fill="#58595B"
   d="m 589.825,93.831 c 0,-3.666 0.67,-7.086 2.01,-10.258 1.339,-3.174 3.3,-5.923 5.88,-8.25 2.58,-2.327 5.738,-4.152 9.476,-5.479 3.737,-1.325 8.003,-1.988 12.797,-1.988 2.087,0 4.189,0.127 6.304,0.381 2.115,0.254 4.153,0.614 6.113,1.079 1.96,0.465 3.8,1.015 5.521,1.65 1.72,0.634 3.216,1.332 4.484,2.094 l -5.796,9.433 c -2.736,-1.268 -5.323,-2.199 -7.763,-2.791 -2.439,-0.594 -4.915,-0.889 -7.425,-0.889 -2.877,0 -5.457,0.374 -7.741,1.122 -2.285,0.748 -4.224,1.791 -5.816,3.13 -1.595,1.34 -2.808,2.918 -3.639,4.738 -0.833,1.819 -1.248,3.801 -1.248,5.943 0,2.145 0.444,4.126 1.332,5.944 0.889,1.818 2.144,3.385 3.766,4.695 1.621,1.312 3.581,2.342 5.88,3.089 2.299,0.747 4.858,1.121 7.678,1.121 3.103,0 6.029,-0.438 8.778,-1.312 2.751,-0.873 5.31,-2.045 7.679,-3.512 l 5.795,9.434 c -1.494,0.903 -3.115,1.742 -4.864,2.518 -1.749,0.776 -3.616,1.445 -5.605,2.01 -1.989,0.565 -4.075,1.008 -6.261,1.332 -2.186,0.324 -4.449,0.486 -6.789,0.486 -4.767,0 -9.039,-0.648 -12.818,-1.945 -3.779,-1.296 -6.98,-3.095 -9.604,-5.394 -2.624,-2.299 -4.632,-5.014 -6.028,-8.144 -1.399,-3.13 -2.096,-6.542 -2.096,-10.237"
   id="path6"
   style="fill:#424242;fill-opacity:1" />
	<path
   fill="#58595B"
   d="m 658.685,68.745 h 12.522 v 4.23 c 3.327,-1.889 6.508,-3.214 9.539,-3.976 3.031,-0.762 6,-1.142 8.905,-1.142 3.808,0 7.333,0.557 10.576,1.671 3.242,1.114 6.049,2.771 8.418,4.97 2.369,2.201 4.224,4.944 5.563,8.228 1.339,3.287 2.009,7.086 2.009,11.402 v 24.537 H 703.738 V 96.158 c 0,-2.735 -0.388,-5.182 -1.164,-7.339 -0.775,-2.157 -1.89,-3.978 -3.342,-5.458 -1.453,-1.481 -3.215,-2.608 -5.288,-3.384 -2.072,-0.775 -4.393,-1.163 -6.959,-1.163 -1.354,0 -2.743,0.14 -4.167,0.423 -1.425,0.282 -2.821,0.684 -4.188,1.206 -1.368,0.521 -2.688,1.17 -3.956,1.945 -1.269,0.776 -2.426,1.658 -3.469,2.645 v 33.631 H 658.683 V 68.745 Z"
   id="path7"
   style="fill:#424242;fill-opacity:1" />
	<path
   fill="#58595B"
   d="m 739.475,61.934 c -1.242,0 -2.363,-0.176 -3.363,-0.529 -1.002,-0.353 -1.855,-0.832 -2.561,-1.438 -0.705,-0.607 -1.247,-1.312 -1.628,-2.115 -0.382,-0.805 -0.571,-1.657 -0.571,-2.56 0,-0.931 0.189,-1.798 0.571,-2.602 0.381,-0.804 0.923,-1.502 1.628,-2.094 0.705,-0.592 1.559,-1.064 2.561,-1.417 1,-0.352 2.121,-0.529 3.363,-0.529 1.269,0 2.403,0.177 3.404,0.529 1.002,0.353 1.854,0.825 2.559,1.417 0.706,0.592 1.25,1.29 1.63,2.094 0.381,0.804 0.571,1.671 0.571,2.602 0,0.903 -0.19,1.755 -0.571,2.56 -0.38,0.803 -0.924,1.508 -1.63,2.115 -0.704,0.606 -1.557,1.085 -2.559,1.438 -1.001,0.353 -2.136,0.529 -3.404,0.529 m -6.262,6.811 h 12.521 v 49.919 h -12.521 z"
   id="path8"
   style="fill:#424242;fill-opacity:1" />
	<polygon
   fill="#58595B"
   points="367.652,28.825 383.318,28.825 383.318,33.279 367.652,33.279 367.652,43.774 362.242,43.774 362.242,17.101 386.099,17.101 386.099,21.845 367.652,21.845 "
   id="polygon8"
   style="fill:#424242;fill-opacity:1" />
	<path
   fill="#58595B"
   d="m 391.214,23.62 h 5.034 v 9.83 c 0,0.933 0.103,1.783 0.307,2.551 0.205,0.768 0.555,1.425 1.05,1.971 0.495,0.546 1.154,0.97 1.98,1.272 0.824,0.301 1.851,0.452 3.08,0.452 0.58,0 1.169,-0.063 1.766,-0.188 0.597,-0.125 1.169,-0.299 1.715,-0.52 0.546,-0.222 1.055,-0.487 1.527,-0.794 0.473,-0.307 0.879,-0.643 1.221,-1.007 V 23.62 h 5.051 v 20.154 h -5.051 v -1.723 c -1.241,0.739 -2.486,1.268 -3.738,1.587 -1.251,0.318 -2.44,0.478 -3.567,0.478 -1.842,0 -3.421,-0.222 -4.735,-0.666 -1.314,-0.444 -2.389,-1.089 -3.225,-1.937 -0.836,-0.847 -1.448,-1.888 -1.835,-3.123 -0.387,-1.234 -0.58,-2.642 -0.58,-4.224 z"
   id="path9"
   style="fill:#424242;fill-opacity:1" />
	<path
   fill="#58595B"
   d="m 420.886,23.637 h 5.051 v 1.707 c 1.342,-0.763 2.625,-1.297 3.848,-1.604 1.224,-0.308 2.421,-0.461 3.593,-0.461 1.536,0 2.958,0.224 4.267,0.674 1.308,0.449 2.44,1.118 3.396,2.005 0.956,0.887 1.704,1.994 2.244,3.319 0.54,1.326 0.81,2.859 0.81,4.599 v 9.898 h -5.033 v -9.078 c 0,-1.104 -0.156,-2.091 -0.47,-2.961 -0.313,-0.871 -0.762,-1.605 -1.348,-2.202 -0.586,-0.597 -1.297,-1.052 -2.133,-1.365 -0.837,-0.313 -1.772,-0.469 -2.808,-0.469 -0.546,0 -1.106,0.057 -1.681,0.17 -0.575,0.114 -1.138,0.276 -1.689,0.487 -0.553,0.21 -1.084,0.472 -1.596,0.784 -0.513,0.313 -0.979,0.669 -1.399,1.067 v 13.567 h -5.051 V 23.637 Z"
   id="path10"
   style="fill:#424242;fill-opacity:1" />
	<path
   fill="#58595B"
   d="m 449.261,33.791 c 0,-1.604 0.302,-3.052 0.905,-4.343 0.603,-1.291 1.436,-2.395 2.5,-3.311 1.063,-0.915 2.326,-1.621 3.788,-2.116 1.462,-0.495 3.046,-0.742 4.753,-0.742 0.728,0 1.447,0.045 2.159,0.137 0.71,0.09 1.393,0.215 2.048,0.375 0.653,0.159 1.268,0.35 1.843,0.571 0.574,0.222 1.083,0.464 1.527,0.726 v -9.625 h 5.051 v 28.311 h -5.051 V 41.88 c -0.444,0.307 -0.968,0.598 -1.569,0.87 -0.604,0.273 -1.253,0.512 -1.946,0.717 -0.694,0.205 -1.414,0.367 -2.159,0.487 -0.745,0.119 -1.481,0.179 -2.21,0.179 -1.706,0 -3.273,-0.251 -4.701,-0.751 -1.428,-0.501 -2.653,-1.206 -3.678,-2.116 -1.023,-0.91 -1.823,-1.999 -2.397,-3.268 -0.577,-1.269 -0.863,-2.671 -0.863,-4.207 m 5.307,0 c 0,0.808 0.162,1.57 0.486,2.287 0.324,0.716 0.791,1.345 1.399,1.886 0.608,0.54 1.343,0.967 2.201,1.28 0.859,0.313 1.823,0.469 2.892,0.469 0.684,0 1.366,-0.066 2.049,-0.196 0.683,-0.131 1.34,-0.316 1.972,-0.555 0.631,-0.239 1.223,-0.529 1.774,-0.87 0.552,-0.342 1.032,-0.723 1.442,-1.144 v -6.98 c -0.512,-0.409 -1.053,-0.756 -1.621,-1.041 -0.569,-0.284 -1.149,-0.517 -1.741,-0.699 -0.592,-0.182 -1.188,-0.316 -1.791,-0.401 -0.604,-0.086 -1.189,-0.128 -1.759,-0.128 -1.16,0 -2.192,0.156 -3.097,0.469 -0.905,0.313 -1.667,0.742 -2.287,1.289 -0.62,0.545 -1.095,1.188 -1.425,1.928 -0.329,0.739 -0.494,1.542 -0.494,2.406"
   id="path11"
   style="fill:#424242;fill-opacity:1" />
	<path
   fill="#58595B"
   d="m 479.581,37.426 c 0,-0.967 0.211,-1.849 0.632,-2.646 0.422,-0.796 1.052,-1.481 1.895,-2.056 0.842,-0.574 1.891,-1.018 3.148,-1.331 1.257,-0.313 2.722,-0.469 4.395,-0.469 1.239,0 2.545,0.091 3.916,0.273 1.371,0.182 2.784,0.46 4.241,0.836 -0.058,-0.637 -0.251,-1.226 -0.581,-1.766 -0.33,-0.54 -0.787,-1.007 -1.373,-1.4 -0.586,-0.392 -1.292,-0.696 -2.116,-0.913 -0.825,-0.216 -1.761,-0.324 -2.808,-0.324 -0.569,0 -1.194,0.034 -1.877,0.103 -0.683,0.068 -1.389,0.17 -2.116,0.307 -0.729,0.136 -1.448,0.307 -2.159,0.512 -0.711,0.204 -1.373,0.449 -1.987,0.733 l -1.536,-4.146 c 0.762,-0.274 1.578,-0.524 2.448,-0.751 0.871,-0.228 1.761,-0.424 2.671,-0.589 0.91,-0.165 1.82,-0.293 2.73,-0.384 0.91,-0.091 1.792,-0.137 2.646,-0.137 3.766,0 6.564,0.962 8.396,2.885 1.831,1.922 2.747,4.869 2.747,8.84 v 8.771 h -5.051 V 41.88 c -0.523,0.307 -1.096,0.597 -1.716,0.87 -0.62,0.273 -1.294,0.512 -2.021,0.717 -0.729,0.205 -1.511,0.367 -2.347,0.486 -0.837,0.12 -1.722,0.179 -2.654,0.179 -1.569,0 -2.949,-0.17 -4.138,-0.512 -1.189,-0.341 -2.182,-0.813 -2.979,-1.416 -0.796,-0.603 -1.396,-1.311 -1.8,-2.125 -0.404,-0.812 -0.606,-1.698 -0.606,-2.653 m 5.324,-0.171 c 0,0.33 0.086,0.646 0.257,0.947 0.17,0.302 0.443,0.569 0.818,0.802 0.376,0.233 0.856,0.421 1.442,0.564 0.587,0.142 1.294,0.213 2.125,0.213 0.887,0 1.746,-0.08 2.576,-0.239 0.831,-0.16 1.604,-0.37 2.321,-0.632 0.717,-0.261 1.365,-0.563 1.945,-0.904 0.58,-0.341 1.063,-0.694 1.451,-1.058 v -0.887 c -0.774,-0.217 -1.539,-0.399 -2.296,-0.547 -0.757,-0.147 -1.479,-0.264 -2.167,-0.349 -0.688,-0.086 -1.337,-0.145 -1.945,-0.18 -0.609,-0.034 -1.141,-0.051 -1.596,-0.051 -0.944,0 -1.729,0.063 -2.355,0.188 -0.626,0.125 -1.132,0.293 -1.519,0.503 -0.387,0.211 -0.66,0.459 -0.819,0.743 -0.158,0.284 -0.238,0.58 -0.238,0.887"
   id="path12"
   style="fill:#424242;fill-opacity:1" />
	<path
   fill="#58595B"
   d="m 508.878,33.757 c 0,-1.479 0.271,-2.858 0.811,-4.138 0.54,-1.28 1.331,-2.389 2.372,-3.328 1.041,-0.939 2.315,-1.675 3.823,-2.21 1.507,-0.534 3.228,-0.802 5.162,-0.802 0.842,0 1.688,0.051 2.543,0.154 0.852,0.102 1.675,0.247 2.466,0.435 0.79,0.187 1.533,0.41 2.227,0.665 0.694,0.256 1.297,0.538 1.81,0.845 l -2.338,3.806 c -1.104,-0.512 -2.148,-0.888 -3.132,-1.127 -0.984,-0.238 -1.982,-0.358 -2.995,-0.358 -1.16,0 -2.201,0.151 -3.123,0.452 -0.922,0.302 -1.704,0.723 -2.347,1.263 -0.643,0.54 -1.133,1.177 -1.468,1.911 -0.335,0.734 -0.503,1.534 -0.503,2.398 0,0.865 0.179,1.664 0.537,2.398 0.358,0.734 0.865,1.365 1.52,1.894 0.653,0.529 1.444,0.945 2.372,1.246 0.927,0.301 1.959,0.452 3.097,0.452 1.252,0 2.433,-0.176 3.541,-0.529 1.109,-0.353 2.143,-0.825 3.098,-1.416 l 2.338,3.805 c -0.603,0.364 -1.257,0.703 -1.962,1.016 -0.706,0.313 -1.459,0.583 -2.262,0.81 -0.802,0.228 -1.644,0.407 -2.525,0.538 -0.882,0.131 -1.795,0.196 -2.739,0.196 -1.924,0 -3.646,-0.262 -5.171,-0.785 -1.525,-0.523 -2.815,-1.249 -3.874,-2.176 -1.058,-0.927 -1.868,-2.022 -2.432,-3.285 -0.565,-1.263 -0.846,-2.639 -0.846,-4.13"
   id="path13"
   style="fill:#424242;fill-opacity:1" />
	<path
   fill="#58595B"
   d="m 536.793,23.638 h 5.051 v 17.116 c 0,1.001 -0.042,1.909 -0.128,2.722 -0.084,0.813 -0.228,1.567 -0.427,2.261 -0.199,0.694 -0.466,1.342 -0.802,1.946 -0.336,0.603 -0.754,1.183 -1.254,1.74 -0.501,0.558 -1.099,1.113 -1.792,1.664 -0.694,0.552 -1.496,1.129 -2.406,1.733 l -1.86,-4.284 c 0.706,-0.523 1.291,-1.041 1.758,-1.553 0.466,-0.512 0.836,-1.047 1.109,-1.604 0.272,-0.558 0.466,-1.155 0.58,-1.792 0.113,-0.637 0.171,-1.337 0.171,-2.099 z m 2.525,-2.748 c -0.501,0 -0.953,-0.071 -1.355,-0.213 -0.405,-0.142 -0.748,-0.336 -1.034,-0.58 -0.284,-0.245 -0.503,-0.53 -0.656,-0.854 -0.154,-0.324 -0.23,-0.668 -0.23,-1.032 0,-0.376 0.076,-0.726 0.23,-1.05 0.153,-0.324 0.372,-0.605 0.656,-0.845 0.286,-0.238 0.629,-0.429 1.034,-0.571 0.402,-0.143 0.854,-0.213 1.355,-0.213 0.512,0 0.97,0.07 1.374,0.213 0.403,0.142 0.748,0.333 1.032,0.571 0.284,0.24 0.503,0.521 0.657,0.845 0.153,0.324 0.23,0.674 0.23,1.05 0,0.364 -0.077,0.708 -0.23,1.032 -0.154,0.324 -0.373,0.609 -0.657,0.854 -0.284,0.244 -0.629,0.438 -1.032,0.58 -0.404,0.141 -0.862,0.213 -1.374,0.213"
   id="path14"
   style="fill:#424242;fill-opacity:1" />
	<path
   fill="#58595B"
   d="m 547.88,37.426 c 0,-0.967 0.211,-1.849 0.632,-2.646 0.421,-0.796 1.052,-1.481 1.895,-2.056 0.842,-0.574 1.891,-1.018 3.148,-1.331 1.257,-0.313 2.722,-0.469 4.395,-0.469 1.239,0 2.545,0.091 3.916,0.273 1.371,0.182 2.784,0.46 4.241,0.836 -0.058,-0.637 -0.251,-1.226 -0.581,-1.766 -0.33,-0.54 -0.787,-1.007 -1.373,-1.4 -0.586,-0.392 -1.292,-0.696 -2.116,-0.913 -0.825,-0.216 -1.761,-0.324 -2.808,-0.324 -0.569,0 -1.194,0.034 -1.877,0.103 -0.683,0.068 -1.389,0.17 -2.116,0.307 -0.729,0.136 -1.448,0.307 -2.159,0.512 -0.711,0.204 -1.373,0.449 -1.987,0.733 l -1.536,-4.146 c 0.762,-0.274 1.578,-0.524 2.448,-0.751 0.871,-0.228 1.761,-0.424 2.671,-0.589 0.91,-0.165 1.82,-0.293 2.73,-0.384 0.91,-0.091 1.792,-0.137 2.646,-0.137 3.766,0 6.564,0.962 8.396,2.885 1.831,1.922 2.747,4.869 2.747,8.84 v 8.771 h -5.051 V 41.88 c -0.523,0.307 -1.096,0.597 -1.716,0.87 -0.62,0.273 -1.294,0.512 -2.021,0.717 -0.729,0.205 -1.511,0.367 -2.347,0.486 -0.837,0.12 -1.722,0.179 -2.654,0.179 -1.569,0 -2.949,-0.17 -4.138,-0.512 -1.189,-0.341 -2.182,-0.813 -2.979,-1.416 -0.796,-0.603 -1.396,-1.311 -1.8,-2.125 -0.404,-0.812 -0.606,-1.698 -0.606,-2.653 m 5.324,-0.171 c 0,0.33 0.086,0.646 0.257,0.947 0.17,0.302 0.443,0.569 0.818,0.802 0.376,0.233 0.856,0.421 1.442,0.564 0.586,0.142 1.294,0.213 2.125,0.213 0.887,0 1.746,-0.08 2.576,-0.239 0.831,-0.16 1.604,-0.37 2.321,-0.632 0.717,-0.261 1.365,-0.563 1.945,-0.904 0.58,-0.341 1.063,-0.694 1.451,-1.058 v -0.887 c -0.774,-0.217 -1.539,-0.399 -2.296,-0.547 -0.757,-0.147 -1.479,-0.264 -2.167,-0.349 -0.688,-0.086 -1.337,-0.145 -1.945,-0.18 -0.609,-0.034 -1.141,-0.051 -1.596,-0.051 -0.944,0 -1.729,0.063 -2.355,0.188 -0.626,0.125 -1.132,0.293 -1.519,0.503 -0.387,0.211 -0.661,0.459 -0.819,0.743 -0.158,0.284 -0.238,0.58 -0.238,0.887"
   id="path15"
   style="fill:#424242;fill-opacity:1" />
</g>
<g
   id="g16"
   style="fill:#424242;fill-opacity:1"
   transform="translate(-74.25142,-15.463)">
	<defs
   id="defs15"><path
     id="SVGID_1_"
     d="m 98.348,42.061 c -19.351,13.167 -42.108,60.268 -1.507,92.814 -7.984,-11.348 -11.177,-28.884 6.123,-45.042 -2.13,-20.437 15.24,-38.982 41.347,-39.547 1.22,-2.785 -0.029,-1.126 -0.937,-4.131 -1.886,-6.241 -10.488,-8.622 -20.262,-8.622 -8.606,0 -18.121,1.845 -24.764,4.528" /></defs>
	<clipPath
   id="SVGID_2_">
		<use
   xlink:href="#SVGID_1_"
   overflow="visible"
   id="use15" />
	</clipPath>
	
		<linearGradient
   id="SVGID_3_"
   gradientUnits="userSpaceOnUse"
   x1="0.0009765625"
   y1="393.99609"
   x2="1.001"
   y2="393.99609"
   gradientTransform="matrix(-14.4833,120.3245,86.2772,10.3851,-33885.008,-4063.5547)">
		<stop
   offset="0"
   style="stop-color:#0088C7"
   id="stop15" />
		<stop
   offset="1"
   style="stop-color:#00B1C3"
   id="stop16" />
	</linearGradient>
	<polygon
   clip-path="url(#SVGID_2_)"
   fill="url(#SVGID_3_)"
   points="157.081,38.923 144.256,145.47 44.69,133.484 57.515,26.938 "
   id="polygon16"
   style="fill:#424242;fill-opacity:1" />
</g>
<g
   id="g19"
   style="fill:#424242;fill-opacity:1"
   transform="translate(-74.25142,-15.463)">
	<defs
   id="defs16"><path
     id="SVGID_4_"
     d="m 98.348,42.061 c 14.19,-5.731 38.75,-5.459 42.299,6.276 3.227,10.68 -8.739,19.818 -23.29,28.412 -29.647,17.518 -38.173,44.616 -19.421,59.008 10.321,7.919 36.206,16.356 67.678,8.505 -28.962,0.8 -79.058,-24.723 -38.398,-48.417 21.47,-12.51 53.067,-19.719 53.067,-40.335 0,-14.812 -21.647,-23.238 -44.264,-23.239 -13.745,0 -27.847,3.111 -37.671,9.79" /></defs>
	<clipPath
   id="SVGID_5_">
		<use
   xlink:href="#SVGID_4_"
   overflow="visible"
   id="use16" />
	</clipPath>
	
		<linearGradient
   id="SVGID_6_"
   gradientUnits="userSpaceOnUse"
   x1="-0.0009765625"
   y1="393.99121"
   x2="0.99900001"
   y2="393.99121"
   gradientTransform="matrix(51.4434,-135.3184,-118.0244,-44.8688,46600.598,17848.246)">
		<stop
   offset="0"
   style="stop-color:#E8058A"
   id="stop17" />
		<stop
   offset="0.63"
   style="stop-color:#EC9443"
   id="stop18" />
		<stop
   offset="1"
   style="stop-color:#F4BE3C"
   id="stop19" />
	</linearGradient>
	<polygon
   clip-path="url(#SVGID_5_)"
   fill="url(#SVGID_6_)"
   points="39.377,136.979 91.95,-1.31 220.09,47.404 167.517,185.694 "
   id="polygon19"
   style="fill:#424242;fill-opacity:1" />
</g>
</svg>
