<?xml version="1.0" encoding="UTF-8" standalone="no"?>
<svg
   width="367.95901"
   zoomAndPan="magnify"
   viewBox="0 0 275.96926 182.53349"
   height="243.37799"
   preserveAspectRatio="xMidYMid"
   version="1.0"
   id="svg47"
   sodipodi:docname="logo-mentor.svg"
   inkscape:version="1.4 (86a8ad7, 2024-10-11)"
   xmlns:inkscape="http://www.inkscape.org/namespaces/inkscape"
   xmlns:sodipodi="http://sodipodi.sourceforge.net/DTD/sodipodi-0.dtd"
   xmlns="http://www.w3.org/2000/svg"
   xmlns:svg="http://www.w3.org/2000/svg">
  <sodipodi:namedview
     id="namedview1"
     pagecolor="#ffffff"
     bordercolor="#666666"
     borderopacity="1.0"
     inkscape:showpageshadow="2"
     inkscape:pageopacity="0.0"
     inkscape:pagecheckerboard="0"
     inkscape:deskcolor="#d1d1d1"
     inkscape:zoom="1.6579149"
     inkscape:cx="162.55358"
     inkscape:cy="104.64952"
     inkscape:window-width="1920"
     inkscape:window-height="1009"
     inkscape:window-x="1912"
     inkscape:window-y="-8"
     inkscape:window-maximized="1"
     inkscape:current-layer="svg47" />
  <defs
     id="defs1" />
  <g
     fill="#000000"
     fill-opacity="1"
     id="g4"
     style="fill:#424242;fill-opacity:1"
     transform="translate(-49.844959,-83.703125)">
    <g
       transform="translate(48.001211,266.03351)"
       id="g3"
       style="fill:#424242;fill-opacity:1">
      <g
         id="g2"
         style="fill:#424242;fill-opacity:1">
        <path
           d="M 8.03125,0 4.5,-11.46875 H 4.421875 c 0.125,2.335938 0.1875,3.890625 0.1875,4.671875 V 0 H 1.84375 V -14.609375 H 6.0625 L 9.515625,-3.4375 h 0.0625 L 13.25,-14.609375 h 4.203125 V 0 h -2.875 v -6.921875 c 0,-0.320313 0.0039,-0.695313 0.01563,-1.125 0.0078,-0.425781 0.05078,-1.554687 0.125,-3.390625 H 14.625 L 10.859375,0 Z m 0,0"
           id="path2"
           style="fill:#424242;fill-opacity:1" />
      </g>
    </g>
  </g>
  <g
     fill="#000000"
     fill-opacity="1"
     id="g7"
     style="fill:#424242;fill-opacity:1"
     transform="translate(-49.844959,-83.703125)">
    <g
       transform="translate(74.275184,266.03351)"
       id="g6"
       style="fill:#424242;fill-opacity:1">
      <g
         id="g5"
         style="fill:#424242;fill-opacity:1">
        <path
           d="M 10.25,0 H 1.84375 V -14.609375 H 10.25 v 2.53125 H 4.9375 v 3.21875 h 4.953125 v 2.53125 H 4.9375 V -2.5625 H 10.25 Z m 0,0"
           id="path4"
           style="fill:#424242;fill-opacity:1" />
      </g>
    </g>
  </g>
  <g
     fill="#000000"
     fill-opacity="1"
     id="g10"
     style="fill:#424242;fill-opacity:1"
     transform="translate(-49.844959,-83.703125)">
    <g
       transform="translate(92.716456,266.03351)"
       id="g9"
       style="fill:#424242;fill-opacity:1">
      <g
         id="g8"
         style="fill:#424242;fill-opacity:1">
        <path
           d="m 14.796875,0 h -3.9375 L 4.5,-11.046875 H 4.421875 c 0.125,1.949219 0.1875,3.339844 0.1875,4.171875 V 0 H 1.84375 V -14.609375 H 5.75 l 6.34375,10.9375 h 0.0625 c -0.09375,-1.894531 -0.140625,-3.238281 -0.140625,-4.03125 v -6.90625 h 2.78125 z m 0,0"
           id="path7"
           style="fill:#424242;fill-opacity:1" />
      </g>
    </g>
  </g>
  <g
     fill="#000000"
     fill-opacity="1"
     id="g13"
     style="fill:#424242;fill-opacity:1"
     transform="translate(-49.844959,-83.703125)">
    <g
       transform="translate(116.33291,266.03351)"
       id="g12"
       style="fill:#424242;fill-opacity:1">
      <g
         id="g11"
         style="fill:#424242;fill-opacity:1">
        <path
           d="M 7.46875,0 H 4.375 V -12.03125 H 0.40625 v -2.578125 H 11.4375 v 2.578125 H 7.46875 Z m 0,0"
           id="path10"
           style="fill:#424242;fill-opacity:1" />
      </g>
    </g>
  </g>
  <g
     fill="#000000"
     fill-opacity="1"
     id="g16"
     style="fill:#424242;fill-opacity:1"
     transform="translate(-49.844959,-83.703125)">
    <g
       transform="translate(135.16381,266.03351)"
       id="g15"
       style="fill:#424242;fill-opacity:1">
      <g
         id="g14"
         style="fill:#424242;fill-opacity:1">
        <path
           d="m 15.109375,-7.328125 c 0,2.417969 -0.605469,4.277344 -1.8125,5.578125 -1.199219,1.304688 -2.917969,1.953125 -5.15625,1.953125 -2.242187,0 -3.960937,-0.648437 -5.15625,-1.953125 C 1.785156,-3.050781 1.1875,-4.914062 1.1875,-7.34375 c 0,-2.4375 0.597656,-4.296875 1.796875,-5.578125 1.207031,-1.28125 2.9375,-1.921875 5.1875,-1.921875 2.238281,0 3.953125,0.648438 5.140625,1.9375 1.195312,1.292969 1.796875,3.152344 1.796875,5.578125 z m -10.671875,0 c 0,1.636719 0.304688,2.867187 0.921875,3.6875 0.625,0.824219 1.550781,1.234375 2.78125,1.234375 2.476563,0 3.71875,-1.640625 3.71875,-4.921875 0,-3.289063 -1.230469,-4.9375 -3.6875,-4.9375 -1.242187,0 -2.171875,0.417969 -2.796875,1.25 -0.625,0.824219 -0.9375,2.054687 -0.9375,3.6875 z m 0,0"
           id="path13"
           style="fill:#424242;fill-opacity:1" />
      </g>
    </g>
  </g>
  <g
     fill="#000000"
     fill-opacity="1"
     id="g19"
     style="fill:#424242;fill-opacity:1"
     transform="translate(-49.844959,-83.703125)">
    <g
       transform="translate(158.43059,266.03351)"
       id="g18"
       style="fill:#424242;fill-opacity:1">
      <g
         id="g17"
         style="fill:#424242;fill-opacity:1">
        <path
           d="m 4.9375,-8.125 h 1 c 0.976562,0 1.703125,-0.160156 2.171875,-0.484375 0.46875,-0.332031 0.703125,-0.847656 0.703125,-1.546875 0,-0.6875 -0.242188,-1.175781 -0.71875,-1.46875 C 7.613281,-11.925781 6.875,-12.078125 5.875,-12.078125 H 4.9375 Z m 0,2.515625 V 0 H 1.84375 v -14.609375 h 4.25 c 1.988281,0 3.457031,0.367187 4.40625,1.09375 0.957031,0.71875 1.4375,1.8125 1.4375,3.28125 0,0.867187 -0.242188,1.632813 -0.71875,2.296875 -0.46875,0.667969 -1.136719,1.195312 -2,1.578125 2.195312,3.28125 3.628906,5.402344 4.296875,6.359375 h -3.4375 L 6.59375,-5.609375 Z m 0,0"
           id="path16"
           style="fill:#424242;fill-opacity:1" />
      </g>
    </g>
  </g>
  <g
     fill="#000000"
     fill-opacity="1"
     id="g25"
     style="fill:#424242;fill-opacity:1"
     transform="translate(-49.844959,-83.703125)">
    <g
       transform="translate(191.21695,266.03351)"
       id="g24"
       style="fill:#424242;fill-opacity:1">
      <g
         id="g23"
         style="fill:#424242;fill-opacity:1">
        <path
           d="m 13.96875,-7.453125 c 0,2.40625 -0.6875,4.25 -2.0625,5.53125 C 10.539062,-0.640625 8.566406,0 5.984375,0 H 1.84375 v -14.609375 h 4.578125 c 2.382813,0 4.238281,0.632813 5.5625,1.890625 1.320313,1.261719 1.984375,3.015625 1.984375,5.265625 z M 10.75,-7.359375 c 0,-3.144531 -1.386719,-4.71875 -4.15625,-4.71875 H 4.9375 V -2.5625 h 1.328125 c 2.988281,0 4.484375,-1.597656 4.484375,-4.796875 z m 0,0"
           id="path22"
           style="fill:#424242;fill-opacity:1" />
      </g>
    </g>
  </g>
  <g
     fill="#000000"
     fill-opacity="1"
     id="g28"
     style="fill:#424242;fill-opacity:1"
     transform="translate(-49.844959,-83.703125)">
    <g
       transform="translate(213.34479,266.03351)"
       id="g27"
       style="fill:#424242;fill-opacity:1">
      <g
         id="g26"
         style="fill:#424242;fill-opacity:1">
        <path
           d="M 1.84375,0 V -14.609375 H 4.9375 V -2.5625 h 5.921875 V 0 Z m 0,0"
           id="path25"
           style="fill:#424242;fill-opacity:1" />
      </g>
    </g>
  </g>
  <g
     fill="#000000"
     fill-opacity="1"
     id="g31"
     style="fill:#424242;fill-opacity:1"
     transform="translate(-49.844959,-83.703125)">
    <g
       transform="translate(231.88596,266.03351)"
       id="g30"
       style="fill:#424242;fill-opacity:1">
      <g
         id="g29"
         style="fill:#424242;fill-opacity:1">
        <path
           d="M 10.78125,0 9.71875,-3.484375 H 4.390625 L 3.34375,0 H 0 L 5.15625,-14.671875 H 8.9375 L 14.125,0 Z M 8.984375,-6.078125 c -0.980469,-3.144531 -1.53125,-4.925781 -1.65625,-5.34375 -0.125,-0.414063 -0.214844,-0.742187 -0.265625,-0.984375 -0.21875,0.855469 -0.851562,2.964844 -1.890625,6.328125 z m 0,0"
           id="path28"
           style="fill:#424242;fill-opacity:1" />
      </g>
    </g>
  </g>
  <g
     fill="#df9762"
     fill-opacity="1"
     id="g37"
     style="fill:#424242;fill-opacity:1"
     transform="translate(-49.844959,-83.703125)">
    <g
       transform="translate(265.29026,266.03351)"
       id="g36"
       style="fill:#424242;fill-opacity:1">
      <g
         id="g35"
         style="fill:#424242;fill-opacity:1">
        <path
           d="m 14.796875,0 h -3.9375 L 4.5,-11.046875 H 4.421875 c 0.125,1.949219 0.1875,3.339844 0.1875,4.171875 V 0 H 1.84375 V -14.609375 H 5.75 l 6.34375,10.9375 h 0.0625 c -0.09375,-1.894531 -0.140625,-3.238281 -0.140625,-4.03125 v -6.90625 h 2.78125 z m 0,0"
           id="path34"
           style="fill:#424242;fill-opacity:1" />
      </g>
    </g>
  </g>
  <g
     fill="#df9762"
     fill-opacity="1"
     id="g40"
     style="fill:#424242;fill-opacity:1"
     transform="translate(-49.844959,-83.703125)">
    <g
       transform="translate(288.90671,266.03351)"
       id="g39"
       style="fill:#424242;fill-opacity:1">
      <g
         id="g38"
         style="fill:#424242;fill-opacity:1">
        <path
           d="M 7.390625,-8.203125 H 13.1875 V -0.625 c -0.9375,0.304688 -1.824219,0.515625 -2.65625,0.640625 -0.835938,0.125 -1.683594,0.1875 -2.546875,0.1875 -2.210937,0 -3.898437,-0.644531 -5.0625,-1.9375 C 1.765625,-3.035156 1.1875,-4.898438 1.1875,-7.328125 c 0,-2.351563 0.671875,-4.191406 2.015625,-5.515625 1.351563,-1.320312 3.226563,-1.984375 5.625,-1.984375 1.5,0 2.941406,0.304687 4.328125,0.90625 L 12.140625,-11.4375 C 11.066406,-11.976562 9.957031,-12.25 8.8125,-12.25 c -1.34375,0 -2.421875,0.453125 -3.234375,1.359375 -0.804687,0.898437 -1.203125,2.105469 -1.203125,3.625 0,1.585937 0.320312,2.796875 0.96875,3.640625 0.65625,0.835938 1.601562,1.25 2.84375,1.25 0.644531,0 1.300781,-0.066406 1.96875,-0.203125 V -5.625 H 7.390625 Z m 0,0"
           id="path37"
           style="fill:#424242;fill-opacity:1" />
      </g>
    </g>
  </g>
  <g
     fill="#df9762"
     fill-opacity="1"
     id="g43"
     style="fill:#424242;fill-opacity:1"
     transform="translate(-49.844959,-83.703125)">
    <g
       transform="translate(310.70485,266.03351)"
       id="g42"
       style="fill:#424242;fill-opacity:1">
      <g
         id="g41"
         style="fill:#424242;fill-opacity:1">
        <path
           d="m 15.109375,-7.328125 c 0,2.417969 -0.605469,4.277344 -1.8125,5.578125 -1.199219,1.304688 -2.917969,1.953125 -5.15625,1.953125 -2.242187,0 -3.960937,-0.648437 -5.15625,-1.953125 C 1.785156,-3.050781 1.1875,-4.914062 1.1875,-7.34375 c 0,-2.4375 0.597656,-4.296875 1.796875,-5.578125 1.207031,-1.28125 2.9375,-1.921875 5.1875,-1.921875 2.238281,0 3.953125,0.648438 5.140625,1.9375 1.195312,1.292969 1.796875,3.152344 1.796875,5.578125 z m -10.671875,0 c 0,1.636719 0.304688,2.867187 0.921875,3.6875 0.625,0.824219 1.550781,1.234375 2.78125,1.234375 2.476563,0 3.71875,-1.640625 3.71875,-4.921875 0,-3.289063 -1.230469,-4.9375 -3.6875,-4.9375 -1.242187,0 -2.171875,0.417969 -2.796875,1.25 -0.625,0.824219 -0.9375,2.054687 -0.9375,3.6875 z m 0,0"
           id="path40"
           style="fill:#424242;fill-opacity:1" />
      </g>
    </g>
  </g>
  <path
     stroke-linecap="round"
     fill="none"
     stroke-linejoin="miter"
     d="M 85.655039,113.92188 V 29.542962"
     stroke="#000000"
     stroke-width="9"
     stroke-opacity="1"
     stroke-miterlimit="4"
     id="path43"
     style="fill:#424242;fill-opacity:1;stroke:#424242;stroke-opacity:1" />
  <path
     stroke-linecap="round"
     fill="none"
     stroke-linejoin="miter"
     d="M 125.56129,88.398442 87.420693,29.667963"
     stroke="#000000"
     stroke-width="9"
     stroke-opacity="1"
     stroke-miterlimit="4"
     id="path44"
     style="fill:#424242;fill-opacity:1;stroke:#424242;stroke-opacity:1" />
  <path
     stroke-linecap="round"
     fill="none"
     stroke-linejoin="miter"
     d="M 183.62379,4.5000018 112.75274,113.62502"
     stroke="#000000"
     stroke-width="9"
     stroke-opacity="1"
     stroke-miterlimit="4"
     id="path45"
     style="fill:#424242;stroke:#424242;fill-opacity:1;stroke-opacity:1" />
  <path
     stroke-linecap="round"
     fill="none"
     stroke-linejoin="miter"
     d="M 203.72926,5.2226563 V 80.121097"
     stroke="#df9762"
     stroke-width="9"
     stroke-opacity="1"
     stroke-miterlimit="4"
     id="path46"
     style="fill:#424242;stroke:#424242;fill-opacity:1;stroke-opacity:1" />
  <path
     stroke-linecap="round"
     fill="none"
     stroke-linejoin="miter"
     d="M 202.37648,5.2802646 128.95911,117.07099"
     stroke="#df9762"
     stroke-width="9.1316"
     stroke-opacity="1"
     stroke-miterlimit="4"
     id="path47"
     style="fill:#424242;stroke:#424242;fill-opacity:1;stroke-opacity:1" />
</svg>
