<?xml version="1.0" encoding="UTF-8" standalone="no"?>
<svg
   width="537.4151"
   height="75"
   viewBox="0 0 537.4151 75"
   fill="none"
   version="1.1"
   id="svg1"
   sodipodi:docname="logo-klaudiusz.svg"
   inkscape:version="1.4 (86a8ad7, 2024-10-11)"
   xmlns:inkscape="http://www.inkscape.org/namespaces/inkscape"
   xmlns:sodipodi="http://sodipodi.sourceforge.net/DTD/sodipodi-0.dtd"
   xmlns="http://www.w3.org/2000/svg"
   xmlns:svg="http://www.w3.org/2000/svg">
  <sodipodi:namedview
     id="namedview1"
     pagecolor="#ffffff"
     bordercolor="#666666"
     borderopacity="1.0"
     inkscape:showpageshadow="2"
     inkscape:pageopacity="0.0"
     inkscape:pagecheckerboard="0"
     inkscape:deskcolor="#d1d1d1"
     inkscape:zoom="3.304708"
     inkscape:cx="268.85885"
     inkscape:cy="37.370926"
     inkscape:window-width="1920"
     inkscape:window-height="1009"
     inkscape:window-x="1912"
     inkscape:window-y="-8"
     inkscape:window-maximized="1"
     inkscape:current-layer="svg1" />
  <defs
     id="defs1" />
  <path
     d="m 20.440297,40.487418 c 3.2494,-4.8218 6.4465,-9.25052 9.5912,-13.28616 3.197,-4.08805 6.2369,-7.59958 9.1195,-10.53459 2.8826,-2.93501 5.5293,-5.21489 7.9402,-6.8396303 2.4109,-1.62474 4.5073,-2.4371 6.2893,-2.4371 0.6814,0 1.4151,0.26205 2.2013,0.78616 0.8385,0.52411 1.5985,1.20545 2.2798,2.0440303 0.7338,0.83857 1.3365,1.75576 1.8082,2.75157 0.4717,0.94339 0.7076,1.86058 0.7076,2.75157 -3.2495,1.04822 -6.4466,2.43711 -9.5912,4.16667 -3.0923,1.67715 -6.0797,3.64255 -8.9623,5.89622 -2.8302,2.20126 -5.5555,4.66457 -8.1761,7.38994 -2.5681,2.72537 -4.9004,5.63417 -6.9968,8.72642 0.8385,2.14884 1.8605,4.45492 3.066,6.91823 1.2579,2.4109 2.6205,4.76939 4.088,7.07547 1.4675,2.25367 3.0399,4.35011 4.717,6.28931 1.6772,1.9392 3.3805,3.48533 5.1101,4.63837 -0.2621,0.57651 -0.7076,1.12683 -1.3365,1.65094 -0.6289,0.52411 -1.3103,0.99581 -2.044,1.41509 -0.7338,0.4717 -1.5199,0.83858 -2.3585,1.10063 -0.7862,0.26206 -1.5199,0.39308 -2.2013,0.39308 -1.3626,0 -2.6205,-0.65513 -3.7735,-1.96541 -1.1531,-1.25786 -2.3323,-3.17086 -3.5378,-5.73899 -1.153,-2.62054 -2.3847,-5.84381 -3.695,-9.66981 -1.2578,-3.87841 -2.6729,-8.38574 -4.2452,-13.52201 z M 8.5692001,71.776728 c -1.9916,-0.4717 -3.6426,-1.31028 -4.9528,-2.51573 -1.3103,-1.15304 -2.5157,-2.62054 -3.61639995217314,-4.40251 C 0.47170015,63.862678 1.0220001,62.552408 1.6509001,60.927668 c 0.6814,-1.62474 1.4938,-3.61635 2.4372,-5.97484 0.9434,-2.41091 2.0702,-5.2673 3.3805,-8.56918 1.3102,-3.3543 2.8300999,-7.25891 4.5596999,-11.71384 1.1006,-2.83019 1.9916,-5.21488 2.673,-7.15409 0.733697,-1.9392 1.336497,-3.82599 1.808197,-5.66037 0.5241,-1.8868 1.022,-3.95703 1.4937,-6.2107 0.4717,-2.25366 1.022,-5.11006 1.6509,-8.5691803 2.2013,0.41929 4.1929,1.38889 5.9748,2.90881 1.8344,1.5199103 3.4068,3.3543003 4.717,5.5031403 -0.5765,0.73375 -1.2578,1.86059 -2.044,3.3805 -0.7338,1.46751 -1.5723,3.24948 -2.5157,5.34592 -0.9434,2.09643 -1.9916,4.42872 -3.1447,6.99685 -1.153,2.56814 -2.3585,5.2935 -3.6163,8.1761 -2.8302,6.28931 -5.057697,12.05451 -6.682397,17.2956 -1.6248,5.18867 -2.8825999,10.22012 -3.7735999,15.09434 z M 51.248597,60.377348 c 0,-2.30608 0.5504,-5.52935 1.651,-9.66981 1.1006,-4.19286 2.6467,-9.06708 4.6384,-14.62263 3.2494,-8.85745 6.28927,-16.22118 9.11945,-22.0912 2.8826,-5.9224303 5.68659,-10.5345903 8.41195,-13.8364803 0.62894,0.10482 1.38889,0.36688 2.27988,0.78617 0.94339,0.41928 1.86058,0.89098 2.75157,1.41509 0.89098,0.4717 1.67715,0.9696 2.35849,1.49371 0.73375,0.52411 1.20545,0.9434 1.4151,1.25786 -4.08806,4.82181 -7.6782,10.0104803 -10.77045,15.5660403 -3.09224,5.55556 -5.92243,11.92348 -8.49056,19.10377 -2.20123,6.18449 -3.87843,11.76625 -5.03143,16.74528 -1.1531,4.92663 -1.7296,9.04088 -1.7296,12.34277 0,0.89099 0,1.4413 0,1.65094 0,0.20965 0.026,0.41929 0.079,0.62893 -0.7337,-0.10482 -1.3626,-0.28826 -1.8868,-0.55031 -0.5241,-0.26205 -0.8647,-0.57652 -1.022,-0.9434 -0.1048,-0.26205 -0.393,-0.65513 -0.8647,-1.17924 -0.4717,-0.4717 -0.891,-0.83858 -1.2579,-1.10063 -0.4717,-0.31447 -0.8648,-1.12684 -1.1793,-2.43711 -0.3144,-1.36268 -0.4717,-2.8826 -0.4717,-4.55975 z m 45.47353,-26.72955 c 0.52411,0 1.12683,0.10482 1.80817,0.31446 0.733757,0.15724 1.388887,0.39309 1.965403,0.70755 0.57652,0.26206 1.04822,0.55032 1.4151,0.86478 0.41929,0.31447 0.62893,0.60273 0.62893,0.86478 -1.04822,2.20126 -2.01782,4.42872 -2.908806,6.68239 -0.89098,2.20126 -1.650937,4.3239 -2.279867,6.36792 -0.62893,2.04403 -1.12683,3.95702 -1.49371,5.73899 -0.31447,1.78198 -0.4717,3.3281 -0.4717,4.63837 0,1.4675 0.15723,2.69916 0.4717,3.69497 0.31446,0.94339 0.83857,1.62474 1.57233,2.04402 -0.62894,0.41929 -1.4413,0.75996 -2.43711,1.02202 -0.99581,0.26205 -1.88679,0.39308 -2.67296,0.39308 -2.83019,0 -4.24528,-1.93921 -4.24528,-5.81761 0,-2.98742 0.99581,-7.07547 2.98742,-12.26415 -1.04822,2.4109 -2.25367,4.69077 -3.61635,6.83962 -1.36268,2.09644 -2.75157,3.95702 -4.16667,5.58176 -1.41509,1.62474 -2.85639,2.96122 -4.3239,4.00943 -1.41509,0.99581 -2.72536,1.59854 -3.93081,1.80818 -1.93921,-0.10482 -3.51154,-1.02201 -4.71699,-2.75157 -1.20545,-1.78197 -1.80817,-4.03564 -1.80817,-6.76101 0,-2.93501 0.62893,-6.02725 1.88679,-9.27673 1.25786,-3.24947 2.8564,-6.2631 4.7956,-9.04087 1.99161,-2.77778 4.14046,-5.08386 6.44654,-6.91824 2.30608,-1.8868 4.53354,-2.8826 6.68239,-2.98742 0.52411,0.15723 1.10063,0.47169 1.72956,0.94339 0.68134,0.4717 1.31027,1.02201 1.88679,1.65095 0.62893,0.62893 1.15304,1.28406 1.57233,1.9654 0.41929,0.62893 0.65514,1.17925 0.70755,1.65095 -2.09644,0.31446 -4.27149,1.33648 -6.52516,3.06604 -2.20126,1.72956 -4.21908,3.82599 -6.05346,6.2893 -1.78197,2.4109 -3.24948,5.00524 -4.40252,7.78302 -1.15304,2.77778 -1.72956,5.37212 -1.72956,7.78302 0,0.9958 0.36688,1.62473 1.10063,1.88679 1.51992,-0.31447 3.27568,-1.59853 5.2673,-3.8522 1.99161,-2.30608 4.40251,-5.84382 7.2327,-10.61321 0.52411,-0.94339 1.10063,-1.99161 1.72956,-3.14465 0.68134,-1.15304 1.36269,-2.35849 2.04403,-3.61635 0.68134,-1.25786 1.33648,-2.51572 1.96541,-3.77359 0.68134,-1.31027 1.31027,-2.56813 1.88679,-3.77358 z m 30.881643,30.03144 c -0.9958,-0.83857 -1.67714,-1.88679 -2.04402,-3.14465 -0.31447,-1.25786 -0.4717,-2.33229 -0.4717,-3.22327 0,-1.10063 0.13103,-2.04403 0.39308,-2.83019 -0.20964,0 -0.68134,0.41928 -1.41509,1.25786 -0.73375,0.83857 -1.54612,1.83438 -2.43711,2.98742 -0.83857,1.15304 -1.67715,2.27987 -2.51572,3.3805 -0.83858,1.10063 -1.46751,1.913 -1.88679,2.43711 -0.68135,0.73375 -1.33648,1.31027 -1.96541,1.72956 -0.57652,0.41929 -1.04822,0.65514 -1.4151,0.70755 -0.83857,-0.0524 -1.72956,-0.23585 -2.67295,-0.55032 -0.89099,-0.26205 -1.75577,-0.65513 -2.59434,-1.17924 -0.78617,-0.52411 -1.49371,-1.15304 -2.12264,-1.88679 -0.57652,-0.73376 -0.9696,-1.57233 -1.17925,-2.51573 0,-1.4675 0.0262,-2.67295 0.0786,-3.61635 0.10482,-0.9434 0.28826,-1.96541 0.55031,-3.06604 0.4717,-1.99161 1.15304,-4.24528 2.04403,-6.761 0.94339,-2.51572 2.01781,-4.97904 3.22327,-7.38994 1.20545,-2.46331 2.54193,-4.74318 4.00943,-6.83962 1.51992,-2.14885 3.11845,-3.82599 4.7956,-5.03145 0.4717,0 1.02201,0.0524 1.65094,0.15724 0.62893,0.0524 1.25787,0.18344 1.8868,0.39308 0.68134,0.20964 1.31027,0.4717 1.88679,0.78616 0.62893,0.26206 1.15304,0.62893 1.57232,1.10063 -0.47169,0.52411 -1.67714,2.27988 -3.61635,5.2673 -1.88679,2.98742 -4.00943,7.28511 -6.36792,12.89307 -0.26206,0.57652 -0.57652,1.4151 -0.9434,2.51573 -0.36687,1.10063 -0.73375,2.25367 -1.10063,3.45912 -0.36687,1.20545 -0.68134,2.38469 -0.94339,3.53773 -0.20965,1.15304 -0.31447,2.07023 -0.31447,2.75157 0,0.41929 0.0524,0.73376 0.15723,0.9434 0.15724,0.20964 0.28826,0.36688 0.39309,0.4717 0.78616,-0.31447 1.78197,-1.17925 2.98742,-2.59434 1.20545,-1.41509 2.8826,-3.59015 5.03144,-6.52516 0.52411,-0.73375 1.12684,-1.57232 1.80818,-2.51572 0.73375,-0.9434 1.4675,-1.9392 2.20126,-2.98742 0.73375,-1.10063 1.41509,-2.22746 2.04402,-3.3805 0.68134,-1.15304 1.23166,-2.30608 1.65095,-3.45912 0.20964,-0.62893 0.47169,-1.36268 0.78616,-2.20126 0.36688,-0.89098 0.78616,-1.80817 1.25786,-2.75157 0.52411,-0.9434 1.10063,-1.88679 1.72956,-2.83019 0.68134,-0.99581 1.46751,-1.913 2.35849,-2.75157 0.68134,0 1.41509,0.0786 2.20126,0.23585 0.78616,0.15723 1.51992,0.36687 2.20126,0.62893 0.73375,0.20964 1.36268,0.4717 1.88679,0.78616 0.52411,0.26206 0.91719,0.55032 1.17924,0.86478 -0.94339,2.30608 -1.99161,4.58596 -3.14465,6.83962 -1.15304,2.25367 -2.22746,4.48114 -3.22327,6.68239 -0.99581,2.14885 -1.83438,4.29769 -2.51572,6.44654 -0.68134,2.14885 -1.02202,4.24528 -1.02202,6.28931 0,1.10063 0.0786,2.07023 0.23585,2.9088 0.20965,0.78617 0.41929,1.46751 0.62893,2.04403 0.20965,0.52411 0.39309,0.9696 0.55032,1.33648 0.20964,0.36687 0.31446,0.68134 0.31446,0.94339 0,0.0524 -0.0524,0.13103 -0.15723,0.23585 -0.0524,0.0524 -0.10482,0.0786 -0.15723,0.0786 -0.36688,0 -0.83858,-0.0786 -1.4151,-0.23585 -0.57652,-0.15723 -1.23165,-0.39308 -1.9654,-0.70754 -0.68135,-0.26206 -1.38889,-0.57652 -2.12265,-0.9434 -0.68134,-0.36688 -1.33648,-0.75996 -1.96541,-1.17925 z m 34.2956,-34.98427 c 1.04822,0 2.25367,0.31446 3.61636,0.94339 1.36268,0.62894 2.56813,1.4413 3.61635,2.43711 -0.26206,-2.09643 -0.60273,-4.06184 -1.02202,-5.89622 -0.36687,-1.8868 -0.94339,-3.826 -1.72955,-5.81761 -0.73376,-1.99162 -1.72957,-4.16667 -2.98743,-6.52516 -1.25786,-2.35849 -2.83019,-5.0576503 -4.71698,-8.0974903 0.15724,-0.47169 0.49791,-1.02201 1.02201,-1.65094 0.57652,-0.62893 1.20545,-1.20545 1.8868,-1.72956 0.73375,-0.57652 1.4675,-1.07442 2.20125,-1.49371 0.78617,-0.41929 1.51992,-0.68135 2.20126,-0.78616 1.46751,1.62474 2.8564,3.66876 4.16667,6.13207 1.31027,2.4109 2.46331,5.0314503 3.45912,7.8616403 0.99581,2.77777 1.75577,5.66037 2.27987,8.6478 0.57652,2.98742 0.86478,5.84381 0.86478,8.56918 0,2.72537 -0.31446,5.52935 -0.94339,8.41195 -0.57652,2.8826 -1.4151,5.71279 -2.51573,8.49056 -1.04822,2.72537 -2.27987,5.31971 -3.69497,7.78302 -1.41509,2.46331 -2.96121,4.66457 -4.63836,6.60377 -1.62474,1.93921 -3.32809,3.51153 -5.11006,4.71698 -1.78197,1.25786 -3.56394,2.04403 -5.34592,2.35849 -3.61635,-0.41928 -6.39412,-1.59853 -8.33333,-3.53773 -1.88679,-1.88679 -2.83019,-4.50734 -2.83019,-7.86164 0,-1.78197 0.26206,-3.72117 0.78617,-5.81761 0.57652,-2.09643 1.31027,-4.16666 2.20126,-6.21068 0.94339,-2.09644 2.01782,-4.11426 3.22327,-6.05346 1.25786,-1.99162 2.56813,-3.77359 3.93081,-5.34592 1.4151,-1.57232 2.83019,-2.9088 4.24529,-4.00943 1.41509,-1.10063 2.80398,-1.80818 4.16666,-2.12264 z m -8.01887,37.81446 c 1.83439,-0.62893 3.66877,-2.01782 5.50315,-4.16667 1.83438,-2.14884 3.48532,-4.66457 4.95283,-7.54717 1.46751,-2.93501 2.64675,-6.05346 3.53774,-9.35534 0.94339,-3.3543 1.41509,-6.57757 1.41509,-9.66981 0,-0.89098 0,-1.4413 0,-1.65094 0,-0.20965 -0.0262,-0.41929 -0.0786,-0.62893 -1.25786,0.52411 -2.59434,1.41509 -4.00943,2.67295 -1.4151,1.25786 -2.83019,2.72537 -4.24528,4.40252 -1.4151,1.62474 -2.75158,3.40671 -4.00944,5.34591 -1.25786,1.9392 -2.38469,3.8784 -3.3805,5.81761 -0.99581,1.9392 -1.78197,3.79979 -2.35849,5.58176 -0.57652,1.78197 -0.86478,3.35429 -0.86478,4.71698 0,2.62054 1.17924,4.11425 3.53773,4.48113 z m 24.96961,-6.36792 c 0,-0.4717 0.0262,-1.04822 0.0786,-1.72956 0.10482,-0.73376 0.26206,-1.67715 0.4717,-2.83019 0.20964,-1.20545 0.4717,-2.64675 0.78616,-4.3239 0.36688,-1.67715 0.81237,-3.69497 1.33648,-6.05346 0.10482,-0.52411 0.34067,-1.36268 0.70755,-2.51572 0.36687,-1.15304 0.83857,-2.35849 1.41509,-3.61635 0.62894,-1.31028 1.36269,-2.56814 2.20126,-3.77359 0.89099,-1.20545 1.9392,-2.09643 3.14465,-2.67295 0.89099,0.20964 2.07023,0.75995 3.53774,1.65094 1.46751,0.83857 2.72537,2.01782 3.77359,3.53774 -1.20545,1.36268 -2.22747,2.72536 -3.06604,4.08805 -0.78617,1.36268 -1.51992,2.77777 -2.20126,4.24528 -0.62893,1.4675 -1.23166,2.98742 -1.80818,4.55974 -0.52411,1.57233 -1.12683,3.22327 -1.80817,4.95283 -0.57652,1.46751 -1.10063,2.98742 -1.57233,4.55975 -0.4717,1.51992 -0.73375,2.8564 -0.78616,4.00944 0,0.94339 -0.0262,1.59853 -0.0786,1.9654 0,0.41929 -0.13102,0.62894 -0.39308,0.62894 -0.20964,0 -0.62893,-0.13103 -1.25786,-0.39309 -0.62893,-0.26205 -1.28407,-0.65513 -1.96541,-1.17924 -0.62893,-0.57652 -1.20545,-1.28407 -1.72956,-2.12264 -0.52411,-0.83858 -0.78616,-1.83439 -0.78616,-2.98742 z m 15.01572,-34.1195 c 0,-0.31446 0.0786,-0.78616 0.23585,-1.41509 -0.26205,-0.26206 -0.4979,-0.65514 -0.70755,-1.17925 -0.15723,-0.52411 -0.23585,-0.9958 -0.23585,-1.41509 0,-0.4717 0.0524,-1.10063 0.15724,-1.88679 0.15723,-0.83858 0.34067,-1.72956 0.55031,-2.67296 0.20964,-0.9434 0.4717,-1.913 0.78616,-2.9088 0.31447,-1.04822 0.62893,-1.99162 0.9434,-2.83019 0.62893,0 1.38889,0.18344 2.27987,0.55031 0.9434,0.31447 1.88679,0.75996 2.83019,1.33648 0.9434,0.52411 1.80818,1.12683 2.59434,1.80817 0.78617,0.62893 1.38889,1.23166 1.80818,1.80818 -0.57652,0.57652 -1.33648,1.38889 -2.27988,2.43711 -0.94339,0.99581 -1.86058,2.07023 -2.75157,3.22327 -0.89099,1.10063 -1.70335,2.14885 -2.43711,3.14465 -0.73375,0.99581 -1.20545,1.70336 -1.41509,2.12264 -0.62893,-0.10482 -1.17924,-0.36687 -1.65094,-0.78616 -0.4717,-0.4717 -0.70755,-0.91719 -0.70755,-1.33648 z m 24.86897,37.65723 c -0.99581,-0.83857 -1.67715,-1.88679 -2.04402,-3.14465 -0.31447,-1.25786 -0.4717,-2.33229 -0.4717,-3.22327 0,-1.10063 0.13103,-2.04403 0.39308,-2.83019 -0.20964,0 -0.68134,0.41928 -1.41509,1.25786 -0.73376,0.83857 -1.54612,1.83438 -2.43711,2.98742 -0.83857,1.15304 -1.67715,2.27987 -2.51573,3.3805 -0.83857,1.10063 -1.4675,1.913 -1.88679,2.43711 -0.68134,0.73375 -1.33647,1.31027 -1.96541,1.72956 -0.57652,0.41929 -1.04821,0.65514 -1.41509,0.70755 -0.83857,-0.0524 -1.72956,-0.23585 -2.67295,-0.55032 -0.89099,-0.26205 -1.75577,-0.65513 -2.59435,-1.17924 -0.78616,-0.52411 -1.49371,-1.15304 -2.12264,-1.88679 -0.57652,-0.73376 -0.9696,-1.57233 -1.17924,-2.51573 0,-1.4675 0.0262,-2.67295 0.0786,-3.61635 0.10483,-0.9434 0.28826,-1.96541 0.55032,-3.06604 0.4717,-1.99161 1.15304,-4.24528 2.04402,-6.761 0.9434,-2.51572 2.01782,-4.97904 3.22328,-7.38994 1.20545,-2.46331 2.54192,-4.74318 4.00943,-6.83962 1.51991,-2.14885 3.11845,-3.82599 4.7956,-5.03145 0.47169,0 1.02201,0.0524 1.65094,0.15724 0.62893,0.0524 1.25786,0.18344 1.88679,0.39308 0.68134,0.20964 1.31027,0.4717 1.88679,0.78616 0.62893,0.26206 1.15304,0.62893 1.57233,1.10063 -0.4717,0.52411 -1.67715,2.27988 -3.61635,5.2673 -1.88679,2.98742 -4.00944,7.28511 -6.36793,12.89307 -0.26205,0.57652 -0.57652,1.4151 -0.94339,2.51573 -0.36688,1.10063 -0.73375,2.25367 -1.10063,3.45912 -0.36688,1.20545 -0.68134,2.38469 -0.9434,3.53773 -0.20964,1.15304 -0.31446,2.07023 -0.31446,2.75157 0,0.41929 0.0524,0.73376 0.15723,0.9434 0.15723,0.20964 0.28826,0.36688 0.39308,0.4717 0.78617,-0.31447 1.78197,-1.17925 2.98742,-2.59434 1.20545,-1.41509 2.8826,-3.59015 5.03145,-6.52516 0.52411,-0.73375 1.12683,-1.57232 1.80818,-2.51572 0.73375,-0.9434 1.4675,-1.9392 2.20125,-2.98742 0.73376,-1.10063 1.4151,-2.22746 2.04403,-3.3805 0.68134,-1.15304 1.23166,-2.30608 1.65094,-3.45912 0.20965,-0.62893 0.4717,-1.36268 0.78617,-2.20126 0.36687,-0.89098 0.78616,-1.80817 1.25786,-2.75157 0.52411,-0.9434 1.10063,-1.88679 1.72956,-2.83019 0.68134,-0.99581 1.4675,-1.913 2.35849,-2.75157 0.68134,0 1.41509,0.0786 2.20126,0.23585 0.78616,0.15723 1.51991,0.36687 2.20126,0.62893 0.73375,0.20964 1.36268,0.4717 1.88679,0.78616 0.52411,0.26206 0.91719,0.55032 1.17924,0.86478 -0.94339,2.30608 -1.99161,4.58596 -3.14465,6.83962 -1.15304,2.25367 -2.22747,4.48114 -3.22327,6.68239 -0.99581,2.14885 -1.83439,4.29769 -2.51573,6.44654 -0.68134,2.14885 -1.02201,4.24528 -1.02201,6.28931 0,1.10063 0.0786,2.07023 0.23585,2.9088 0.20964,0.78617 0.41929,1.46751 0.62893,2.04403 0.20964,0.52411 0.39308,0.9696 0.55031,1.33648 0.20965,0.36687 0.31447,0.68134 0.31447,0.94339 0,0.0524 -0.0524,0.13103 -0.15723,0.23585 -0.0524,0.0524 -0.10482,0.0786 -0.15724,0.0786 -0.36687,0 -0.83857,-0.0786 -1.41509,-0.23585 -0.57652,-0.15723 -1.23165,-0.39308 -1.96541,-0.70754 -0.68134,-0.26206 -1.38889,-0.57652 -2.12264,-0.9434 -0.68134,-0.36688 -1.33648,-0.75996 -1.96541,-1.17925 z m 44.58596,-29.55974 c -0.0524,0.9958 -0.23585,2.04402 -0.55032,3.14465 -0.26205,1.04822 -0.60273,2.01782 -1.02201,2.90881 -0.41929,0.83857 -0.86478,1.54612 -1.33648,2.12264 -0.4717,0.57652 -0.91719,0.86478 -1.33648,0.86478 -0.57652,-0.0524 -0.91719,-0.4455 -1.02201,-1.17925 0,-0.15723 0.0524,-0.39308 0.15723,-0.70755 0.15724,-0.36687 0.31447,-0.75995 0.4717,-1.17924 0.15723,-0.41929 0.28826,-0.83857 0.39308,-1.25786 0.15724,-0.41929 0.23585,-0.78617 0.23585,-1.10063 0,-0.73375 -0.18344,-1.33648 -0.55031,-1.80818 -0.31447,-0.52411 -0.75996,-0.78616 -1.33648,-0.78616 -2.09644,0 -3.69497,1.31027 -4.7956,3.93082 -1.10063,2.62054 -1.65094,6.47274 -1.65094,11.5566 0,0.52411 0.0262,0.83857 0.0786,0.94339 1.10063,-0.0524 2.07023,-0.0786 2.90881,-0.0786 0.89099,-0.0524 1.75577,-0.0786 2.59434,-0.0786 0.0524,0.10482 0.0786,0.31447 0.0786,0.62893 0,0.4717 -0.10482,0.81237 -0.31447,1.02202 -1.20545,0.26205 -2.17505,0.4979 -2.90881,0.70754 -0.68134,0.15724 -1.20545,0.31447 -1.57232,0.4717 -0.36688,0.15723 -0.60273,0.34067 -0.70755,0.55032 -0.0524,0.15723 -0.0786,0.39308 -0.0786,0.70754 0,0.41929 0,0.83858 0,1.25786 0.0524,0.41929 0.0786,0.9434 0.0786,1.57233 0,4.40252 -1.20545,7.94025 -3.61635,10.61321 -2.35849,2.67296 -5.66038,4.21908 -9.90566,4.63836 -0.73375,-0.0524 -1.49371,-0.26205 -2.27988,-0.62893 -0.78616,-0.36687 -1.54612,-0.83857 -2.27987,-1.41509 -0.68134,-0.57652 -1.28407,-1.23166 -1.80818,-1.96541 -0.52411,-0.68134 -0.89098,-1.38889 -1.10062,-2.12264 0,-1.99162 0.41928,-3.87841 1.25786,-5.66038 0.83857,-1.83438 1.9654,-3.43291 3.3805,-4.7956 1.46751,-1.41509 3.17086,-2.54192 5.11006,-3.3805 1.99162,-0.89098 4.14046,-1.41509 6.44655,-1.57233 0,-1.31027 -0.13103,-2.59434 -0.39309,-3.8522 -0.26205,-1.25786 -0.55031,-2.46331 -0.86478,-3.61635 -0.26205,-1.20545 -0.52411,-2.35849 -0.78616,-3.45912 -0.26206,-1.15304 -0.39308,-2.27987 -0.39308,-3.3805 0,-1.4151 0.28826,-2.80398 0.86478,-4.16667 0.57652,-1.41509 1.33648,-2.69916 2.27987,-3.8522 0.9434,-1.20545 2.04403,-2.22746 3.30189,-3.06604 1.25786,-0.83857 2.56813,-1.41509 3.93082,-1.72956 0.57652,0.15724 1.33647,0.62893 2.27987,1.4151 0.99581,0.73375 1.96541,1.57233 2.9088,2.51572 0.9434,0.9434 1.78197,1.913 2.51573,2.90881 0.73375,0.94339 1.17924,1.72956 1.33648,2.35849 z m -25.9434,35.84905 c 1.25786,-0.52411 2.43711,-1.28407 3.53773,-2.27988 1.15304,-0.9958 2.14885,-2.12264 2.98743,-3.3805 0.83857,-1.25786 1.49371,-2.59434 1.96541,-4.00943 0.52411,-1.4151 0.78616,-2.80399 0.78616,-4.16667 -1.04822,0.15723 -2.20126,0.65514 -3.45912,1.49371 -1.25786,0.78617 -2.43711,1.75577 -3.53774,2.90881 -1.10062,1.10063 -2.01781,2.25367 -2.75157,3.45912 -0.73375,1.20545 -1.10063,2.25366 -1.10063,3.14465 0,1.15304 0.52411,2.09644 1.57233,2.83019 z m 23.16876,-5.66038 c 0,-0.83857 0.73376,-2.17505 2.20126,-4.00943 1.4675,-1.88679 3.40671,-4.00944 5.81761,-6.36793 2.46331,-2.4109 5.26729,-4.92662 8.41195,-7.54716 3.19707,-2.67296 6.49895,-5.24109 9.90566,-7.7044 -2.20126,-0.4717 -3.95702,-0.81237 -5.2673,-1.02202 -1.25786,-0.20964 -2.27987,-0.31446 -3.06603,-0.31446 -1.51992,0 -2.8826,0.20964 -4.08805,0.62893 -1.20546,0.41929 -2.3847,1.10063 -3.53774,2.04402 -2.4109,-2.09643 -3.61635,-4.50733 -3.61635,-7.2327 0,-0.83858 0.0262,-1.33648 0.0786,-1.49371 0.89098,-0.89099 1.9392,-1.57233 3.14465,-2.04403 1.25786,-0.4717 2.56813,-0.70754 3.93082,-0.70754 1.4675,0 2.96121,0.23584 4.48113,0.70754 1.51991,0.4717 3.01362,0.99581 4.48113,1.57233 1.46751,0.52411 2.83019,1.02201 4.08805,1.49371 1.31027,0.4717 2.46331,0.70755 3.45912,0.70755 0.57652,0 1.20545,-0.0786 1.88679,-0.23585 0.73376,-0.15723 1.33648,-0.36688 1.80818,-0.62893 0.4717,0.36687 0.89099,1.10063 1.25786,2.20126 0.41929,1.10062 0.62893,2.17505 0.62893,3.22327 -1.62474,0.62893 -3.59015,1.72956 -5.89623,3.30188 -2.25366,1.57233 -4.55974,3.38051 -6.91823,5.42453 -2.35849,2.04402 -4.66457,4.21907 -6.91824,6.52515 -2.20126,2.30608 -4.03564,4.48114 -5.50315,6.52516 1.10063,0.4717 2.59434,0.70755 4.48114,0.70755 1.20545,0 2.4371,-0.10482 3.69496,-0.31447 1.25786,-0.20964 2.46331,-0.4979 3.61635,-0.86478 1.20546,-0.36687 2.30609,-0.78616 3.30189,-1.25786 0.99581,-0.52411 1.83438,-1.07442 2.51573,-1.65094 2.46331,1.57233 3.69496,3.8784 3.69496,6.91824 0,0.41928 -0.0262,0.75996 -0.0786,1.02201 0,0.26205 -0.0262,0.57652 -0.0786,0.9434 -2.4109,1.51991 -5.03144,2.27987 -7.86163,2.27987 -1.4151,0 -2.83019,-0.15723 -4.24529,-0.4717 -1.41509,-0.26205 -2.80398,-0.55031 -4.16666,-0.86478 -1.31028,-0.31446 -2.56814,-0.60272 -3.77359,-0.86478 -1.15304,-0.31446 -2.22746,-0.4717 -3.22327,-0.4717 -2.51572,0 -4.55975,1.17925 -6.13208,3.53774 -0.68134,-0.26205 -1.25786,-0.73375 -1.72955,-1.41509 -0.41929,-0.68135 -0.68135,-1.4413 -0.78617,-2.27988 z m 113.12579,-42.21697 c 0,3.24947 -0.89099,6.15828 -2.67296,8.72641 -1.78197,2.51572 -4.21908,4.61216 -7.31132,6.28931 1.99162,1.36268 3.56394,3.03983 4.71698,5.03144 1.20545,1.93921 1.80818,4.08806 1.80818,6.44654 0,2.83019 -0.86478,5.63417 -2.59434,8.41195 -1.67715,2.72537 -3.93082,5.16247 -6.76101,7.31132 -2.83019,2.09644 -6.05346,3.79979 -9.66981,5.11006 -3.61635,1.31028 -7.31132,1.96541 -11.0849,1.96541 -4.08805,0 -7.6782,-0.78616 -10.77044,-2.35849 -3.03984,-1.51991 -5.42453,-3.69497 -7.15409,-6.52515 0.52411,-1.57233 1.20545,-3.51153 2.04402,-5.81761 0.89099,-2.3585 1.86059,-4.82181 2.90881,-7.38994 1.04822,-2.62054 2.09643,-5.21488 3.14465,-7.78302 1.10063,-2.56813 2.12264,-4.87421 3.06604,-6.91824 1.99161,-4.45492 3.77358,-8.14989 5.34591,-11.0849 1.57233,-2.93501 3.01363,-5.2673 4.3239,-6.99686 -2.8826,0.89099 -5.50314,1.913 -7.86163,3.06604 -2.35849,1.10063 -4.08805,2.17505 -5.18868,3.22327 -0.4717,-0.31446 -0.9696,-0.78616 -1.49371,-1.41509 -0.4717,-0.62893 -0.9434,-1.31027 -1.4151,-2.04403 -0.41929,-0.78616 -0.78616,-1.57232 -1.10063,-2.35849 -0.26205,-0.78616 -0.41929,-1.49371 -0.4717,-2.12264 1.36269,-0.9434 3.11845,-1.83438 5.2673,-2.67295 2.20126,-0.89099 4.58595,-1.65095 7.15409,-2.2798803 2.56813,-0.62893 5.18868,-1.12683 7.86163,-1.49371 2.72537,-0.36688 5.31971,-0.55032 7.78302,-0.55032 6.28931,0 11.21594,1.25787 14.77988,3.7735903 3.56394,2.51572 5.34591,6.00105 5.34591,10.45598 z m -29.95283,18.7893 c -0.99581,-0.47169 -1.913,-1.17924 -2.75157,-2.12264 -1.20545,2.67296 -2.35849,5.2935 -3.45912,7.86164 -1.04822,2.56813 -1.99162,4.95282 -2.83019,7.15408 -0.83858,2.20126 -1.51992,4.11426 -2.04403,5.73899 -0.52411,1.62474 -0.81237,2.80399 -0.86478,3.53774 0.73376,0.41929 1.59854,0.73375 2.59434,0.9434 1.04822,0.20964 2.33229,0.31446 3.8522,0.31446 3.56394,0 6.97065,-0.4979 10.22013,-1.49371 3.24948,-0.99581 6.10587,-2.33228 8.56918,-4.00943 2.46331,-1.72956 4.42872,-3.69497 5.89623,-5.89623 1.4675,-2.20126 2.20126,-4.50734 2.20126,-6.91823 0,-3.45912 -1.49371,-5.94864 -4.48114,-7.46856 -4.08805,1.67715 -8.70021,2.51573 -13.83647,2.51573 -0.73376,0 -1.31028,0 -1.72956,0 -0.36688,0 -0.81237,-0.0524 -1.33648,-0.15724 z m 15.25157,-27.27987 c -1.10063,0 -2.27987,0.0786 -3.53774,0.23585 -1.20545,0.10482 -2.48951,0.28826 -3.8522,0.55031 0.20965,0.20965 0.36688,0.44549 0.4717,0.70755 0.15723,0.20964 0.28826,0.44549 0.39308,0.70755 -0.47169,0.62893 -1.04821,1.54612 -1.72956,2.75157 -0.68134,1.20545 -1.4413,2.62054 -2.27987,4.24528 -0.83858,1.57233 -1.72956,3.32809 -2.67296,5.2673 -0.89098,1.9392 -1.80817,3.93082 -2.75157,5.97484 0.89099,-0.20964 1.96541,-0.36688 3.22327,-0.4717 1.31027,-0.15723 2.59434,-0.23585 3.8522,-0.23585 0.68134,0 1.33648,0.0262 1.96541,0.0786 0.68134,0.0524 1.33648,0.13103 1.96541,0.23585 2.51572,-0.41929 4.76939,-1.02201 6.76101,-1.80818 2.04402,-0.83857 3.79979,-1.78197 5.26729,-2.83019 1.46751,-1.10062 2.59434,-2.30608 3.38051,-3.61635 0.78616,-1.31027 1.17924,-2.69916 1.17924,-4.16666 0,-2.51573 -0.99581,-4.40252 -2.98742,-5.66038 -1.99161,-1.31027 -4.87421,-1.96541 -8.6478,-1.96541 z m 16.19078,46.54088 c 0,-0.4717 0.0262,-1.04822 0.0786,-1.72956 0.10482,-0.73376 0.26206,-1.67715 0.4717,-2.83019 0.20964,-1.20545 0.4717,-2.64675 0.78616,-4.3239 0.36688,-1.67715 0.81237,-3.69497 1.33648,-6.05346 0.10482,-0.52411 0.34067,-1.36268 0.70755,-2.51572 0.36688,-1.15304 0.83857,-2.35849 1.41509,-3.61635 0.62893,-1.31028 1.36269,-2.56814 2.20126,-3.77359 0.89099,-1.20545 1.9392,-2.09643 3.14466,-2.67295 0.89098,0.20964 2.07023,0.75995 3.53773,1.65094 1.46751,0.83857 2.72537,2.01782 3.77359,3.53774 -1.20545,1.36268 -2.22747,2.72536 -3.06604,4.08805 -0.78616,1.36268 -1.51992,2.77777 -2.20126,4.24528 -0.62893,1.4675 -1.23166,2.98742 -1.80818,4.55974 -0.5241,1.57233 -1.12683,3.22327 -1.80817,4.95283 -0.57652,1.46751 -1.10063,2.98742 -1.57233,4.55975 -0.4717,1.51992 -0.73375,2.8564 -0.78616,4.00944 0,0.94339 -0.0262,1.59853 -0.0786,1.9654 0,0.41929 -0.13103,0.62894 -0.39308,0.62894 -0.20964,0 -0.62893,-0.13103 -1.25786,-0.39309 -0.62893,-0.26205 -1.28407,-0.65513 -1.96541,-1.17924 -0.62893,-0.57652 -1.20545,-1.28407 -1.72956,-2.12264 -0.52411,-0.83858 -0.78616,-1.83439 -0.78616,-2.98742 z m 15.01572,-34.1195 c 0,-0.31446 0.0786,-0.78616 0.23585,-1.41509 -0.26206,-0.26206 -0.49791,-0.65514 -0.70755,-1.17925 -0.15723,-0.52411 -0.23585,-0.9958 -0.23585,-1.41509 0,-0.4717 0.0524,-1.10063 0.15724,-1.88679 0.15723,-0.83858 0.34067,-1.72956 0.55031,-2.67296 0.20964,-0.9434 0.4717,-1.913 0.78616,-2.9088 0.31447,-1.04822 0.62893,-1.99162 0.9434,-2.83019 0.62893,0 1.38889,0.18344 2.27987,0.55031 0.9434,0.31447 1.8868,0.75996 2.83019,1.33648 0.9434,0.52411 1.80818,1.12683 2.59434,1.80817 0.78616,0.62893 1.38889,1.23166 1.80818,1.80818 -0.57652,0.57652 -1.33648,1.38889 -2.27988,2.43711 -0.94339,0.99581 -1.86058,2.07023 -2.75157,3.22327 -0.89098,1.10063 -1.70335,2.14885 -2.43711,3.14465 -0.73375,0.99581 -1.20545,1.70336 -1.41509,2.12264 -0.62893,-0.10482 -1.17925,-0.36687 -1.65094,-0.78616 -0.4717,-0.4717 -0.70755,-0.91719 -0.70755,-1.33648 z m 31.62893,6.83963 c -0.20964,3.24947 -0.78616,6.05345 -1.72956,8.41194 -0.9434,2.30608 -2.30608,4.35011 -4.08805,6.13208 -1.72956,1.72956 -3.8522,3.30188 -6.36792,4.71698 -2.51573,1.41509 -5.45074,2.77777 -8.80504,4.08805 0,0.31446 -0.0262,0.65513 -0.0786,1.02201 0,0.31447 0,0.65514 0,1.02201 0,0.68134 0.0524,1.38889 0.15723,2.12264 0.10482,0.73376 0.28826,1.4151 0.55031,2.04403 0.26206,0.62893 0.62894,1.15304 1.10063,1.57233 0.4717,0.36687 1.07443,0.55031 1.80818,0.55031 1.41509,0 2.80398,-0.31446 4.16667,-0.9434 1.36268,-0.62893 2.64675,-1.38888 3.8522,-2.27987 1.25786,-0.9434 2.4109,-1.9392 3.45912,-2.98742 1.10063,-1.10063 2.07023,-2.09644 2.9088,-2.98742 0.52411,0.4717 0.9696,0.91719 1.33648,1.33648 -2.35849,3.14465 -4.95283,5.76519 -7.78302,7.86163 -2.77778,2.04403 -5.42453,3.3543 -7.94025,3.93082 -3.61635,-0.41929 -6.44654,-1.72956 -8.49057,-3.93082 -1.99161,-2.25367 -2.98742,-4.95283 -2.98742,-8.09748 0,-2.14885 0.28826,-4.3239 0.86478,-6.52516 0.62893,-2.25367 1.46751,-4.40251 2.51573,-6.44654 1.10063,-2.09643 2.35849,-4.06184 3.77358,-5.89622 1.46751,-1.83439 3.01363,-3.43292 4.63836,-4.7956 1.67716,-1.36268 3.38051,-2.43711 5.11007,-3.22327 1.78197,-0.78617 3.53773,-1.17925 5.26729,-1.17925 2.41091,0.31447 4.66457,1.80818 6.76101,4.48114 z m -5.42453,2.59433 c -1.41509,0.20965 -2.8826,0.78617 -4.40251,1.72956 -1.51992,0.9434 -2.96122,2.20126 -4.3239,3.77359 -1.31027,1.57233 -2.51573,3.40671 -3.61636,5.50314 -1.10063,2.09644 -1.9654,4.3501 -2.59434,6.76101 4.19288,-2.09644 7.6782,-4.66457 10.45598,-7.7044 2.77778,-3.09225 4.27149,-6.44654 4.48113,-10.0629 z m 21.79979,-8.1761 c 1.36268,0.41929 2.64675,1.36269 3.85221,2.83019 1.20545,1.4151 2.09643,2.98742 2.67295,4.71698 -0.57652,1.4151 -1.4675,3.11845 -2.67295,5.11007 -1.20546,1.99161 -2.41091,4.03564 -3.61636,6.13207 -1.20545,2.04402 -2.30608,4.00943 -3.30189,5.89622 -0.94339,1.83439 -1.49371,3.3543 -1.65094,4.55975 0.83858,-0.89098 1.75577,-1.91299 2.75157,-3.06603 1.04822,-1.20546 2.04403,-2.3847 2.98742,-3.53774 0.99581,-1.20545 1.913,-2.27987 2.75158,-3.22327 0.83857,-0.9958 1.49371,-1.72956 1.96541,-2.20125 0.9958,-1.04822 2.17505,-2.25367 3.53773,-3.61636 1.36268,-1.41509 2.77778,-2.72536 4.24529,-3.93081 1.51991,-1.25787 3.03983,-2.30608 4.55974,-3.14466 1.51992,-0.89098 2.90881,-1.33648 4.16667,-1.33648 1.36268,0 2.48952,0.4717 3.3805,1.4151 0.9434,0.89098 1.67715,1.83438 2.20126,2.83019 0,0.10482 -0.20964,0.26205 -0.62893,0.47169 -0.36688,0.15724 -0.91719,0.65514 -1.65094,1.49372 -0.73376,0.94339 -1.57233,2.25366 -2.51573,3.93081 -0.89098,1.62474 -1.78197,3.40671 -2.67295,5.34591 -0.83858,1.88679 -1.54613,3.826 -2.12265,5.81761 -0.57651,1.99161 -0.86477,3.79979 -0.86477,5.42453 0,1.31027 0.15723,2.14885 0.47169,2.51572 0.36688,0.36688 0.86478,0.55032 1.49371,0.55032 0.57652,0 1.17925,-0.13103 1.80818,-0.39309 0.62893,-0.26205 1.12684,-0.39308 1.49371,-0.39308 0.20965,0.10482 0.36688,0.34067 0.4717,0.70755 0.15723,0.31447 0.23585,0.60273 0.23585,0.86478 -0.41929,0.36688 -0.91719,0.73375 -1.49371,1.10063 -0.57652,0.36688 -1.17925,0.70755 -1.80818,1.02201 -0.62893,0.31447 -1.25786,0.57652 -1.88679,0.78617 -0.57652,0.20964 -1.10063,0.31446 -1.57233,0.31446 -1.51991,0 -2.77777,-0.23585 -3.77358,-0.70755 -0.9434,-0.41928 -1.70336,-0.9958 -2.27988,-1.72956 -0.52411,-0.73375 -0.89098,-1.59853 -1.10063,-2.59434 -0.20964,-1.04821 -0.31446,-2.14884 -0.31446,-3.30188 0,-0.62893 0.0524,-1.33648 0.15723,-2.12264 0.10482,-0.78617 0.31447,-1.70336 0.62893,-2.75158 0.31447,-1.10063 0.75996,-2.38469 1.33648,-3.8522 0.57652,-1.51991 1.31027,-3.32809 2.20126,-5.42452 -0.10482,0 -0.81237,0.36687 -2.12264,1.10063 -1.31028,0.73375 -2.72537,1.86058 -4.24529,3.3805 -2.46331,2.35849 -4.69077,4.69077 -6.68239,6.99685 -1.9392,2.30608 -3.93081,4.87422 -5.97484,7.7044 -1.15304,1.62474 -2.17505,2.98743 -3.06604,4.08805 -0.83857,1.15304 -1.57232,1.913 -2.20125,2.27988 -1.10063,-0.62893 -1.913,-1.51992 -2.43711,-2.67296 -0.52411,-1.10063 -0.91719,-2.25367 -1.17925,-3.45912 0,-0.9958 0.13103,-2.25367 0.39309,-3.77358 0.31446,-1.51992 0.70754,-3.19707 1.17924,-5.03145 0.52411,-1.88679 1.15304,-3.8522 1.88679,-5.89623 0.73375,-2.04402 1.54612,-4.08804 2.43711,-6.13207 1.99161,-4.61216 3.79979,-8.22851 5.42453,-10.84905 1.67715,-2.62055 2.72536,-4.03564 3.14465,-4.24529 z M 463.81027,9.8270377 c 0.52411,0.3144703 1.04822,0.8385803 1.57233,1.5723303 0.57652,0.68134 1.07442,1.46751 1.49371,2.35849 0.4717,0.83858 0.83857,1.70336 1.10063,2.59434 0.26205,0.89099 0.39308,1.70336 0.39308,2.43711 -1.99161,1.36268 -3.74738,2.48952 -5.26729,3.3805 -1.46751,0.89099 -2.80399,1.62474 -4.00944,2.20126 -1.15304,0.52411 -2.17505,0.91719 -3.06604,1.17924 -0.89098,0.20965 -1.75576,0.31447 -2.59433,0.31447 -1.67715,0 -3.11845,-0.4979 -4.32391,-1.49371 1.15305,-0.41929 2.3585,-1.07442 3.61636,-1.96541 1.25786,-0.89098 2.51572,-1.96541 3.77358,-3.22327 1.31027,-1.25786 2.56814,-2.67296 3.77359,-4.24528 1.25786,-1.57233 2.4371,-3.27568 3.53773,-5.1100703 z m 4.24843,48.1918203 c 0,-1.88679 0.4717,-4.50733 1.41509,-7.86163 0.99581,-3.3543 2.27988,-7.02306 3.85221,-11.00629 1.57232,-3.98322 3.35429,-8.09748 5.34591,-12.34276 1.99161,-4.24529 3.98323,-8.20231 5.97484,-11.87107 2.04403,-3.66876 3.98323,-6.8396303 5.81761,-9.5125803 1.88679,-2.67296 3.48533,-4.48113 4.7956,-5.4245300046875 C 495.99371,0.0523977 496.77987,0.3668677 497.61845,0.9433977 c 0.89098,0.57652 1.70335,1.28406 2.43711,2.12264 0.73375,0.78616 1.33648,1.62474 1.80817,2.51572 0.52411,0.89099 0.78617,1.70335 0.78617,2.43711 -2.35849,1.88679 -4.7694,4.3239003 -7.23271,7.3113203 -2.4109,2.93501 -4.71698,6.18449 -6.91824,9.74843 -2.20126,3.51153 -4.24528,7.25891 -6.13207,11.24213 -1.83438,3.93082 -3.38051,7.80923 -4.63837,11.63522 1.67715,-2.88259 3.43292,-5.50314 5.2673,-7.86163 1.83438,-2.35849 3.66876,-4.37631 5.50314,-6.05346 1.83438,-1.67715 3.61636,-2.96122 5.34591,-3.8522 1.78197,-0.9434 3.45912,-1.4413 5.03145,-1.49371 2.30608,1.67715 3.45912,3.90461 3.45912,6.68239 0,1.67715 -0.34067,3.3805 -1.02201,5.11006 -0.68134,1.67715 -1.59853,3.24948 -2.75158,4.71698 -1.10063,1.4151 -2.38469,2.64675 -3.8522,3.69497 -1.41509,0.9958 -2.9088,1.65094 -4.48113,1.96541 0.52411,1.83438 1.17925,3.69496 1.96541,5.58176 0.83858,1.88679 1.80818,3.72117 2.90881,5.50314 1.15303,1.78197 2.4371,3.43291 3.8522,4.95283 1.4675,1.51992 3.11845,2.80398 4.95283,3.8522 -0.26206,0.52411 -0.65514,1.04822 -1.17925,1.57233 -0.52411,0.52411 -1.15304,0.9696 -1.88679,1.33648 -0.73375,0.41928 -1.54612,0.73375 -2.43711,0.94339 -0.83857,0.26206 -1.67715,0.39309 -2.51572,0.39309 -1.4151,0 -2.75157,-0.70755 -4.00943,-2.12265 -1.20545,-1.41509 -2.30608,-3.45912 -3.30189,-6.13207 -0.78617,-2.14885 -1.54612,-4.71698 -2.27988,-7.7044 -0.73375,-2.98743 -1.38888,-6.10587 -1.9654,-9.35535 0.73375,-0.4717 1.65094,-1.15304 2.75157,-2.04402 1.10063,-0.9434 2.25367,-2.01782 3.45912,-3.22327 4.61216,-4.45493 6.91823,-8.30713 6.91823,-11.5566 0,-0.41929 -0.28826,-0.62894 -0.86477,-0.62894 -1.04822,0.0524 -2.27988,0.55032 -3.69497,1.49372 -1.41509,0.94339 -2.93501,2.25366 -4.55975,3.93081 -1.57233,1.67715 -3.19707,3.64256 -4.87421,5.89623 -1.62474,2.25367 -3.19707,4.69077 -4.71699,7.31132 -0.62893,1.04821 -1.20545,2.25366 -1.72956,3.61635 -0.5241,1.36268 -0.9958,2.77778 -1.41509,4.24528 -0.36688,1.4151 -0.65514,2.83019 -0.86478,4.24528 -0.20964,1.4151 -0.31446,2.72537 -0.31446,3.93082 0,0.73375 0.0786,1.33648 0.23584,1.80818 -1.62473,-0.15724 -2.62054,-0.57652 -2.98742,-1.25786 -0.41928,-0.62893 -0.78616,-1.15304 -1.10063,-1.57233 -0.26205,-0.36688 -0.55031,-0.68134 -0.86478,-0.9434 -0.4717,-0.36687 -0.86478,-1.15304 -1.17924,-2.35849 -0.31447,-1.20545 -0.4717,-2.72537 -0.4717,-4.55975 z m 47.7369,10.14151 c -2.98742,-0.31446 -5.37212,-1.62474 -7.15409,-3.93081 -1.78197,-2.30608 -2.67296,-5.24109 -2.67296,-8.80504 0,-2.09643 0.31447,-4.27148 0.9434,-6.52515 0.62893,-2.25367 1.51991,-4.42872 2.67296,-6.52516 1.15304,-2.14884 2.51572,-4.16666 4.08805,-6.05346 1.57232,-1.88679 3.27568,-3.51153 5.11006,-4.87421 2.8826,-2.14885 5.58176,-3.22327 8.09748,-3.22327 1.67715,0.89099 3.3281,2.75157 4.95283,5.58176 0.26206,0 0.49791,0 0.70755,0 0.20964,-0.0524 0.44549,-0.0786 0.70755,-0.0786 2.77777,0 4.16666,2.46331 4.16666,7.38993 0,3.30189 -0.55031,6.44654 -1.65094,9.43396 -1.04822,2.93501 -2.54193,5.60797 -4.48113,8.01887 -1.88679,2.4109 -4.16667,4.45492 -6.83962,6.13207 -2.62055,1.62474 -5.50315,2.77778 -8.6478,3.45912 z m 4.00943,-24.76414 c -0.89098,1.20545 -1.72956,2.51572 -2.51572,3.93081 -0.78617,1.41509 -1.46751,2.85639 -2.04403,4.3239 -0.57652,1.41509 -1.02201,2.80398 -1.33647,4.16667 -0.31447,1.31027 -0.4717,2.48951 -0.4717,3.53773 0,1.25786 0.20964,2.46331 0.62893,3.61635 0.41929,1.15304 0.89098,1.80818 1.41509,1.96541 2.35849,-0.52411 4.50734,-1.49371 6.44654,-2.9088 1.99162,-1.46751 3.69497,-3.27568 5.11006,-5.42453 1.46751,-2.14885 2.59435,-4.58595 3.38051,-7.31132 0.83857,-2.72536 1.25786,-5.63417 1.25786,-8.72641 0,-1.36269 -0.0786,-2.43711 -0.23585,-3.22327 -0.15723,-0.78617 -0.41928,-1.46751 -0.78616,-2.04403 -2.30608,0.68134 -4.37631,1.78197 -6.21069,3.30189 -1.78197,1.51992 -3.32809,3.11845 -4.63837,4.7956 z"
     fill="#000000"
     id="path1"
     style="stroke-width:1.04822;fill:#424242;fill-opacity:1" />
</svg>
