<?xml version="1.0" encoding="UTF-8" standalone="no"?>
<svg
   width="275.49866"
   height="64.054688"
   viewBox="0 0 275.49866 64.054688"
   fill="none"
   version="1.1"
   id="svg1"
   xml:space="preserve"
   sodipodi:docname="logo-amos.svg"
   inkscape:version="1.4 (86a8ad7, 2024-10-11)"
   xmlns:inkscape="http://www.inkscape.org/namespaces/inkscape"
   xmlns:sodipodi="http://sodipodi.sourceforge.net/DTD/sodipodi-0.dtd"
   xmlns="http://www.w3.org/2000/svg"
   xmlns:svg="http://www.w3.org/2000/svg"><sodipodi:namedview
     id="namedview1"
     pagecolor="#ffffff"
     bordercolor="#666666"
     borderopacity="1.0"
     inkscape:showpageshadow="2"
     inkscape:pageopacity="0.0"
     inkscape:pagecheckerboard="0"
     inkscape:deskcolor="#d1d1d1"
     inkscape:zoom="3.2232462"
     inkscape:cx="150.46942"
     inkscape:cy="38.005164"
     inkscape:window-width="1920"
     inkscape:window-height="1057"
     inkscape:window-x="-8"
     inkscape:window-y="-8"
     inkscape:window-maximized="1"
     inkscape:current-layer="svg1" /><defs
     id="defs1" /><path
     id="rect1-5"
     style="fill:#424242;stroke:none;stroke-width:1.01454;fill-opacity:1"
     d="M 2.3144407,-2.0009453e-6 C 1.0319007,-2.0009453e-6 -9.2646864e-6,1.031908 -9.2646864e-6,2.314458 v 59.42578 c 0,1.28255 1.0319100646864,2.31445 2.3144499646864,2.31445 H 61.738271 c 1.28255,0 2.31446,-1.0319 2.31446,-2.31445 V 2.314458 c 0,-1.28255 -1.03191,-2.3144600009453 -2.31446,-2.3144600009453 z M 26.648431,3.728518 c 1.55189,0.009 3.47604,0.95751 3.67969,2.12305 0.0764,0.43749 -0.0932,0.23649 -0.13672,0.66015 -0.17939,1.74904 0.98626,4.11275 -1.64844,4.84375 -0.37289,0.10346 -0.29954,0.66099 -0.19531,1.18164 0.13622,0.68049 0.27616,1.3732 0.75781,1.55664 1.26718,0.48263 2.56661,0.83942 3.74414,2.5625 0.86146,1.26058 1.02938,2.78953 1.23438,4.08399 0.2061,1.30147 0.44726,2.36523 0.44726,2.36523 0.30904,2.07667 1.25575,5.1697 1.93945,7.58203 0.12836,0.45292 0.734,0.71571 0.8379,1.10938 0.17839,0.67591 0.24447,2.63371 0.24023,3.0664 -10e-4,0.13064 0.77463,0.89607 1.82617,1.41993 1.01309,0.50469 1.55254,0.6471 1.93945,0.69336 0.76736,0.0918 1.19212,-0.87591 0.89454,-1.16993 -0.34717,-0.34301 -0.5651,-0.19024 -1.22461,-1.13867 -0.34697,-0.49896 0.0204,-1.96607 -0.0606,-2.13086 -0.24812,-0.50522 -0.09,-0.24251 -0.25781,-0.67968 -0.11677,-0.30423 0.30305,-0.96895 0.46289,-1.25 0.31769,-0.55864 1.08697,-0.81027 2.02539,-0.84571 0.6539,-0.0247 2.06717,0.26492 2.60742,1.21485 0.53459,0.93996 0.53755,2.52336 0.0957,3.49023 -0.27438,0.60044 -0.83324,1.02587 -0.98047,2.28906 -0.0845,0.7248 1.07192,1.04992 2.31446,3.05664 0.28744,0.46422 0.78929,2.38268 1.70508,4.23047 0.92151,1.85933 1.82737,3.83852 1.93164,4.34375 0.0571,0.27655 -0.28865,0.77951 -0.75782,0.55664 -0.48798,-0.2318 -0.44548,-0.54337 -0.46289,-0.71093 -0.0611,-0.58788 -0.96798,-2.16219 -1.73242,-3.4629 -0.4532,-0.77111 -0.78458,-1.47348 -1.05469,-1.74023 -0.4143,-0.40916 0.71626,5.40666 0.94922,5.92969 -0.40768,0.0755 -0.45668,0.18232 -1.16992,0.38281 -0.25529,0.0718 0.30315,1.72268 0.62891,3.50781 0.24309,1.33212 0.32933,2.60581 0.31054,2.8418 -0.0104,0.12998 0.87257,-0.34257 1.0918,0.0547 0.1314,0.2381 -0.17829,1.01077 -0.42383,1.3164 -0.34363,0.42771 -0.83198,0.88406 -1.03906,0.72266 -0.46229,-0.36031 -1.54744,-3.49682 -1.86914,-4.23828 -0.78121,-1.80054 -1.56369,-3.54413 -2.22266,-3.60156 -0.1279,-0.0112 -0.3924,1.29382 -0.31836,2.81835 0.11566,2.38159 0.54753,4.63188 0.44727,5.45313 -0.0745,0.61058 -0.28351,0.6633 -0.75781,0.91211 -0.47954,0.25156 -1.26689,-0.21383 -1.58985,-0.44727 -0.54117,-0.39118 -1.11289,-0.94287 -0.82617,-1.30273 0.26745,-0.33568 1.36254,0.018 1.29297,-0.37109 -0.0989,-0.5533 -1.54287,-5.42353 -1.64258,-7.3711 -1.00065,-0.69161 -2.13867,-1.00781 -2.13867,-1.00781 0,0 0.49836,-1.94298 1.05273,-3.99805 0.54281,-2.01224 0.86028,-3.68203 0.85938,-3.89843 -0.004,-1.05866 -0.65959,-2.21527 -1.02148,-2.54102 -1.08119,-0.9732 -2.1,-2.54596 -2.18555,-2.67774 -0.23942,-0.36876 0.24688,-1.65845 -0.18164,-2.25976 -0.72751,-1.02087 -0.42591,-1.52138 -0.54688,-1.77148 0,0 -1.86698,-2.38382 -2.52929,-3.73243 -0.72204,-1.47024 -1.53321,-4.66797 -1.53321,-4.66797 l 0.19336,5.06055 c 0,0 -0.13454,3.51916 -0.0156,5.39453 0.0157,0.24717 -0.68946,0.48438 -0.68946,0.48438 0,0 0.24064,5.18146 0.17383,7.56836 -0.0796,2.84253 -0.67969,8.57226 -0.67969,8.57226 0,0 1.19854,0.14357 1.53125,0.48438 0.52157,0.53425 0.62219,0.98399 -2.93164,4.61914 -0.67579,0.69125 -1.56999,-0.46145 -1.65625,-2.54297 -0.26532,-6.40219 0.88044,-10.82673 -2.14453,-17.96289 -0.23201,8.31251 -0.96037,18.64287 -1.15429,21.19336 -0.0699,0.91969 -0.65229,3.79714 -2.31055,3.37109 -0.24296,-0.0624 -0.45703,-0.42773 -0.45703,-0.42773 l -2.24805,-3.94727 c -0.38868,-0.68293 0.0931,-1.8017 0.61524,-1.73828 0.53143,0.0645 1.04705,0.53394 1.03906,-0.0469 -0.0105,-0.7637 -0.17658,-4.96892 -0.44336,-9.41211 -0.24863,-4.14099 -0.43489,-7.47342 -0.63281,-10.41016 -0.3083,-0.0309 -0.75816,0.0161 -0.75977,-0.14844 -0.0502,-5.13423 0.91009,-10.16573 0.625,-12.13281 -1.72922,3.9137 -4.13433,10.16452 -4.02148,12.43555 0.13332,2.68287 -2.3462,1.9272 -2.27149,0.82422 0.0599,-0.88439 0.17421,-0.74074 0.33008,-1.46094 0.24269,-1.1213 0.36997,-3.10527 0.59766,-4.03125 0.589,-2.39542 0.32173,-1.04598 1.07421,-4.29883 0.67605,-2.92244 1.52212,-5.45637 1.75586,-6.18359 0.66175,-2.05881 1.58494,-3.03054 2.07422,-3.5 0.92545,-0.88796 5.06543,-1.1397 5.33985,-1.76172 -0.0177,0.0402 1.05386,-2.12966 -0.66407,-3.90625 -0.94611,-0.97841 -0.49311,-4.41059 1.93164,-5.29688 0.29269,-0.10698 0.63211,-0.15443 0.99024,-0.15234 z" /><path
     style="font-size:25.3333px;line-height:1.25;font-family:'ITC Flora';-inkscape-font-specification:'ITC Flora';text-align:center;letter-spacing:2.62px;text-anchor:middle;fill:#424242"
     d="m 78.588835,10.970055 c -0.557333,-0.455999 -1.063999,-0.886665 -1.063999,-1.646664 0,-1.0639986 0.937332,-1.6213312 2.279997,-1.6213312 2.279997,0 3.039996,1.1146652 3.521329,1.1146652 0.202666,0 0.329333,-0.1773331 0.329333,-0.3546662 l 0.101333,-2.3053303 c 0,-0.7093324 -2.862663,-1.1146652 -4.053328,-1.1146652 -3.014663,0 -5.978659,1.4186648 -5.978659,4.6613272 0,2.3053305 0.911999,3.0399955 2.634663,4.4079945 l 2.482664,1.975997 c 0.683999,0.557333 0.835999,0.835999 0.835999,1.215998 0,1.443998 -1.013332,1.925331 -2.583997,1.925331 -2.203997,0 -3.673328,-1.089332 -4.053328,-1.089332 -0.177333,0 -0.329333,0.152 -0.329333,0.430666 l -0.101333,2.305331 c 0.658666,0.861332 3.419996,1.139998 4.711994,1.139998 3.419995,0 6.155992,-1.874664 6.155992,-5.041327 0,-2.07733 -0.962666,-2.913329 -2.482664,-4.103994 z m 18.580001,8.13199 c 0,-0.202667 -0.126666,-0.405333 -0.329333,-0.405333 -0.177333,0 -1.013332,0.531999 -2.279997,0.531999 -1.494664,0 -2.00133,-0.607999 -2.00133,-2.051997 l 0.354666,-6.561325 h 4.205328 c 0.354666,0 0.506666,-0.152 0.506666,-0.481332 l 0.101333,-1.6719982 c 0,-0.253333 0,-0.506666 -0.481333,-0.506666 h -4.205328 l 0.152,-2.6346632 c 0,-0.3039996 0,-0.5319993 -0.455999,-0.5319993 h -2.53333 c -0.38,0 -0.557333,0.1773331 -0.557333,0.5319993 l -0.152,2.6346632 h -1.291998 c -0.303999,0 -0.481332,0.1773331 -0.481332,0.506666 l -0.101334,1.6719982 c 0,0.303999 0.05067,0.481332 0.456,0.481332 h 1.291998 l -0.405333,7.82799 c 0,2.53333 1.418665,3.571995 4.027995,3.571995 1.899997,0 4.078661,-0.531999 4.078661,-1.342665 z m 8.851984,2.913329 c 3.62266,0 6.78932,-2.583996 6.78932,-8.005323 0,-4.179994 -2.204,-6.3079912 -5.64933,-6.3079912 -3.52132,0 -6.66265,2.4826632 -6.66265,8.1319892 0,4.053328 2.17866,6.181325 5.52266,6.181325 z m -1.72267,-6.130658 c 0,-1.570665 0.20267,-5.52266 2.66,-5.52266 1.79866,0 2.052,1.925331 2.052,3.723995 0,3.343996 -0.86134,5.269327 -2.63467,5.269327 -1.748,0 -2.07733,-1.747998 -2.07733,-3.470662 z m 17.81997,5.877325 c 0.836,0 0.988,-0.607999 1.24133,-1.367998 l 1.87466,-6.409325 c 0.43067,-1.545331 0.73467,-2.786663 0.78534,-3.242662 h 0.0507 c 0,0.658666 0.10134,3.039996 0.27867,4.68666 l 0.48133,4.91466 c 0.12667,1.241332 0.38,1.418665 1.01333,1.418665 h 2.78667 c 0.70933,0 0.836,-0.455999 1.08933,-1.114665 l 4.66133,-12.337317 c 0,-0.253333 -0.10134,-0.3546662 -0.35467,-0.3546662 h -2.63466 c -0.228,0 -0.48134,0.1773331 -0.55734,0.4053328 l -1.69733,5.2946594 c -0.88666,2.786663 -1.11466,3.749329 -1.39333,4.91466 h -0.0507 c -0.15199,-1.595998 -0.30399,-3.647995 -0.43066,-4.76266 l -0.608,-5.243993 c -0.0253,-0.3039996 -0.27867,-0.6079992 -0.608,-0.6079992 h -3.47066 c -0.27867,0 -0.532,0.3039996 -0.63333,0.6079992 l -1.95067,6.561325 c -0.456,1.494664 -0.836,3.039996 -0.912,3.445328 h -0.0507 c -0.0253,-0.658665 -0.228,-3.622662 -0.532,-5.471992 l -0.73467,-4.8133273 c -0.0507,-0.2026664 -0.25333,-0.3293329 -0.43066,-0.3293329 h -3.09067 c -0.20266,0 -0.40533,0.253333 -0.40533,0.4559994 l 2.508,12.0333178 c 0.20266,0.937332 0.304,1.317331 1.01333,1.317331 z m 25.01466,-0.481333 c 0,0.253333 0.0253,0.481333 0.48133,0.481333 h 2.78666 c 0.40534,0 0.55733,-0.152 0.55733,-0.481333 l 0.684,-12.8186492 c 0,-0.3293329 -0.076,-0.506666 -0.532,-0.506666 h -2.65999 c -0.17733,0 -0.304,0.2279997 -0.32933,0.4306661 -0.20267,-0.1013332 -1.19067,-0.6839991 -2.68533,-0.6839991 -3.59733,0 -6.66266,3.7239952 -6.66266,9.6519872 0,2.710663 0.93733,4.661327 3.14133,4.661327 3.47066,0 5.11732,-4.027995 5.39599,-5.091993 l 0.0507,0.05067 z m -4.81333,-4.53466 c 0,-2.406664 0.532,-6.510658 4.15466,-6.510658 0.86133,0 1.292,0.227999 1.54533,0.329333 -0.10133,1.367998 -3.09066,7.903989 -4.76266,7.903989 -0.70933,0 -0.93733,-0.911999 -0.93733,-1.722664 z m 14.09597,4.53466 c 0,0.278667 0.0253,0.481333 0.50667,0.481333 h 2.65999 c 0.25334,0 0.38,-0.177333 0.38,-0.481333 l 0.10134,-1.92533 c 0.0507,-1.190665 1.77333,-8.106656 4.58532,-8.106656 0.81067,0 1.11467,0.506666 1.49467,0.506666 0.228,0 0.38,-0.278667 0.38,-0.532 l 0.152,-2.7106626 c 0,-0.6839991 -0.532,-0.8106656 -1.57067,-0.8106656 -3.09066,0 -4.48399,4.4333272 -4.68666,5.7253262 l -0.0507,-0.05067 0.304,-5.0159934 c 0,-0.3039996 -0.0507,-0.4053328 -0.38,-0.4053328 h -2.66 c -0.304,0 -0.50667,0.076 -0.50667,0.4053328 z m 12.27201,-0.02533 c 0,0.304 0.0253,0.506666 0.48133,0.506666 h 9.67732 c 0.38,0 0.532,-0.152 0.532,-0.506666 l 0.10133,-1.646664 c 0,-0.304 0,-0.506666 -0.48133,-0.506666 h -5.67466 l 6.35866,-8.866655 c 0.17733,-0.2533332 0.32933,-0.5319995 0.32933,-0.8106658 l 0.0507,-1.013332 c 0,-0.3039996 -0.0253,-0.4559994 -0.532,-0.4559994 h -9.11999 c -0.35467,0 -0.50667,0.1519998 -0.50667,0.4559994 l -0.10133,1.6973308 c 0,0.304 0.0253,0.506666 0.48133,0.506666 h 4.96533 l -6.18133,8.638655 c -0.152,0.228 -0.32933,0.481333 -0.32933,0.759999 z M 195.8554,8.3607256 c 0,-0.4053328 -0.17734,-0.4053328 -0.38,-0.4053328 h -2.33067 c -0.228,0 -0.55733,0.050667 -0.63333,0.3039996 l -1.596,3.8759946 c -0.65866,1.621331 -1.72266,4.483994 -1.87466,5.091993 h -0.0507 c -0.10133,-0.911998 -0.50666,-2.837329 -0.96266,-4.61066 l -1.11467,-4.3319943 c -0.0507,-0.2026664 -0.304,-0.3293329 -0.50666,-0.3293329 h -2.93867 c -0.27866,0 -0.43066,0.025333 -0.43066,0.3039996 l 3.77466,13.4773156 -0.40533,0.911999 c -0.63334,1.469331 -1.19067,2.15333 -2.48267,2.15333 -0.988,0 -1.216,-0.405333 -1.596,-0.405333 -0.25333,0 -0.38,0.253333 -0.38,0.481333 l -0.10133,1.874664 c 0,0.557333 1.216,0.835999 2.68533,0.835999 2.432,0 3.648,-1.165332 4.63599,-3.470662 z m 6.85066,3.9519944 c -0.32933,-0.202666 -0.58267,-0.506666 -0.58267,-0.861332 0,-0.759999 0.73467,-1.089332 2.00133,-1.089332 1.52,0 2.53333,0.962666 3.04,0.962666 0.20267,0 0.304,-0.202667 0.304,-0.405333 l 0.10133,-1.9253309 c 0,-0.8613322 -2.20399,-1.2919983 -3.67333,-1.2919983 -2.98933,0 -4.93999,1.7479977 -4.93999,4.4839942 0,1.722664 0.58267,2.735996 2.07733,3.597328 l 2.30533,1.418665 c 0.532,0.38 0.912,0.607999 0.912,1.139999 0,0.658665 -0.73467,1.013332 -1.87466,1.013332 -1.976,0 -3.36933,-1.215999 -3.69867,-1.215999 -0.228,0 -0.35466,0.202667 -0.35466,0.405333 l -0.10134,2.153331 c 0,0.937332 1.92534,1.317331 3.92667,1.317331 3.09066,0 5.26932,-1.621331 5.26932,-4.458661 0,-1.950664 -0.88666,-2.862663 -2.05199,-3.597328 z m 8.06665,8.942655 c 0,0.304 0.0253,0.506666 0.48133,0.506666 h 9.67732 c 0.38,0 0.532,-0.152 0.532,-0.506666 l 0.10133,-1.646664 c 0,-0.304 0,-0.506666 -0.48133,-0.506666 h -5.67466 l 6.35866,-8.866655 c 0.17733,-0.2533332 0.32933,-0.5319995 0.32933,-0.8106658 l 0.0507,-1.013332 c 0,-0.3039996 -0.0253,-0.4559994 -0.532,-0.4559994 h -9.11999 c -0.35467,0 -0.50667,0.1519998 -0.50667,0.4559994 l -0.10133,1.6973308 c 0,0.304 0.0253,0.506666 0.48133,0.506666 h 4.96533 l -6.18132,8.638655 c -0.152,0.228 -0.32934,0.481333 -0.32934,0.759999 z m 24.68531,-2.482663 c 0,-0.177333 -0.10133,-0.354666 -0.304,-0.354666 -0.32933,0 -1.444,0.810665 -3.29333,0.810665 -2.76133,0 -3.26799,-1.798664 -3.26799,-3.039996 2.15333,0 7.52399,-0.633332 7.52399,-5.14266 0,-2.0773302 -1.11467,-3.3439952 -3.97733,-3.3439952 -3.85066,0 -6.96666,3.6733282 -6.96666,8.4613222 0,4.205328 1.72267,5.851992 5.59866,5.851992 2.204,0 4.58533,-0.430666 4.58533,-1.342665 z m -3.87599,-8.537322 c 1.11466,0 1.368,0.557332 1.368,1.317331 0,1.975998 -3.47067,2.203997 -4.23067,2.229331 0.20267,-1.595998 1.01334,-3.546662 2.86267,-3.546662 z m 8.69996,11.045318 c 0,0.278667 0.0253,0.481333 0.50667,0.481333 h 2.65999 c 0.25334,0 0.38,-0.177333 0.38,-0.481333 l 0.10134,-1.899997 c 0.10133,-2.254664 2.71066,-7.625323 4.05332,-7.625323 0.35467,0 0.65867,0.152 0.65867,0.557332 0,0.177333 -0.0253,0.456 -0.0253,0.658666 l -0.43067,8.309322 c 0,0.228 0,0.481333 0.456,0.481333 h 2.78666 c 0.38,0 0.55733,-0.177333 0.55733,-0.481333 l 0.50667,-10.158653 c 0,-2.2039968 -0.63333,-3.4199952 -2.66,-3.4199952 -3.74932,0 -5.09199,4.3066612 -5.54799,5.6239922 l -0.0507,-0.05067 0.304,-4.9146604 c 0,-0.3039996 -0.0507,-0.4053328 -0.38,-0.4053328 h -2.65999 c -0.304,0 -0.50667,0.076 -0.50667,0.4053328 z m 17.13597,0 c 0,0.278667 0.0253,0.481333 0.50666,0.481333 h 2.66 c 0.25333,0 0.38,-0.177333 0.38,-0.481333 l 0.70933,-12.9199824 c 0,-0.3039996 -0.0507,-0.4053328 -0.38,-0.4053328 h -2.65999 c -0.304,0 -0.50667,0.076 -0.50667,0.4053328 z m 3.26799,-15.0733129 c 0.836,0 1.39333,-0.1773331 1.444,-0.9879987 l 0.0507,-1.013332 c 0.0253,-0.7853322 -0.35467,-1.0639985 -1.16533,-1.0639985 h -1.72267 c -0.836,0 -1.26666,0.2786663 -1.31733,1.0893318 l -0.0253,0.9879987 c -0.0507,0.6333325 0.304,0.9879987 1.16533,0.9879987 z m 15.46401,12.5653169 c 0,-0.177333 -0.10133,-0.354666 -0.304,-0.354666 -0.32933,0 -1.444,0.810665 -3.29333,0.810665 -2.76133,0 -3.26799,-1.798664 -3.26799,-3.039996 2.15333,0 7.52399,-0.633332 7.52399,-5.14266 0,-2.0773302 -1.11467,-3.3439952 -3.97733,-3.3439952 -3.85066,0 -6.96666,3.6733282 -6.96666,8.4613222 0,4.205328 1.72267,5.851992 5.59866,5.851992 2.204,0 4.58533,-0.430666 4.58533,-1.342665 z m -3.87599,-8.537322 c 1.11466,0 1.368,0.557332 1.368,1.317331 0,1.975998 -3.47067,2.203997 -4.23067,2.229331 0.20267,-1.595998 1.01334,-3.546662 2.86267,-3.546662 z"
     id="text4-1"
     aria-label="Stowarzyszenie" /><path
     style="font-weight:bold;font-size:37.3333px;line-height:1.25;font-family:'Neue Aachen Pro';-inkscape-font-specification:'Neue Aachen Pro Bold';text-align:center;letter-spacing:2.6px;text-anchor:middle;fill:#424242"
     d="m 87.794836,33.175806 3.583997,17.583985 q 0.298666,1.455999 0.559999,2.053331 0.298667,0.597333 0.821333,0.858666 v 4.40533 h -9.743992 v -4.40533 q 0.858666,-0.522666 0.858666,-1.343999 0,-0.111999 -0.03733,-0.261333 0,-0.149333 -0.07467,-0.485333 h -3.73333 q -0.112,0.56 -0.112,0.746666 0,0.970666 1.007999,1.343999 v 4.40533 h -8.586659 v -4.40533 q 0.261333,-0.223999 0.410666,-0.410666 0.186667,-0.224 0.298667,-0.485333 0.112,-0.298666 0.186666,-0.671999 0.112,-0.410667 0.224,-1.007999 l 3.359997,-17.919985 z m -4.74133,13.999988 -0.783999,-4.40533 q -0.112,-0.671999 -0.261333,-1.418665 -0.112,-0.784 -0.261333,-2.015998 h -0.07467 q -0.07467,0.821332 -0.186666,1.717331 -0.112,0.858666 -0.224,1.717332 l -0.597333,4.40533 z m 14.023989,6.495994 q 0.634666,-0.298666 0.821332,-0.746666 0.186667,-0.447999 0.186667,-1.605332 V 39.970467 q 0,-1.194666 -0.186667,-1.642666 -0.186666,-0.447999 -0.821332,-0.746666 v -4.405329 h 10.341325 l 2.128,9.781325 h 0.0747 l 2.27734,-9.781325 h 10.07999 v 4.405329 q -0.63467,0.298667 -0.82134,0.784 -0.18666,0.447999 -0.18666,1.605332 V 51.31979 q 0,0.597333 0.0373,0.970666 0.0747,0.373333 0.18667,0.634666 0.112,0.261333 0.29866,0.448 0.18667,0.149333 0.48534,0.298666 v 4.40533 h -9.408 v -4.40533 q 0.63467,-0.335999 0.784,-0.746666 0.18667,-0.447999 0.18667,-1.605332 v -6.197328 h -0.0747 q -0.0373,0.746666 -0.224,1.754665 -0.18666,0.970666 -0.59733,2.538665 l -2.31466,8.661326 h -2.98667 l -2.65066,-9.930658 q -0.14934,-0.522667 -0.336,-1.418666 -0.14933,-0.933332 -0.224,-1.605332 h -0.0747 v 6.197328 q 0,0.597333 0.0373,0.970666 0.0373,0.373333 0.14933,0.634666 0.112,0.261333 0.29866,0.448 0.224,0.149333 0.52267,0.298666 v 4.40533 h -7.989325 z m 39.634625,-0.485333 q 0.52267,0 0.82134,-0.223999 0.29866,-0.261334 0.448,-0.634667 0.14933,-0.373333 0.18666,-0.858665 0.0373,-0.485333 0.0373,-1.008 v -9.669325 q 0,-0.485333 -0.0373,-0.970666 -0.0373,-0.522666 -0.18666,-0.895999 -0.14934,-0.373333 -0.448,-0.597333 -0.29867,-0.261333 -0.82134,-0.261333 -0.52266,0 -0.82133,0.261333 -0.29867,0.224 -0.448,0.597333 -0.14933,0.373333 -0.18667,0.895999 -0.0373,0.485333 -0.0373,0.970666 v 9.669325 q 0,0.522667 0.0373,1.008 0.0373,0.485332 0.18667,0.858665 0.14933,0.373333 0.448,0.634667 0.29867,0.223999 0.82133,0.223999 z m 0,-20.458649 q 2.94933,0 4.77867,0.634666 1.82933,0.634666 2.83733,1.717332 1.008,1.045333 1.344,2.426665 0.336,1.381332 0.336,2.874664 v 10.490658 q 0,1.493332 -0.336,2.874664 -0.336,1.381332 -1.344,2.463998 -1.008,1.045332 -2.83733,1.679998 -1.82934,0.634667 -4.77867,0.634667 -2.98666,0 -4.81599,-0.634667 -1.792,-0.634666 -2.8,-1.679998 -1.008,-1.082666 -1.344,-2.463998 -0.336,-1.381332 -0.336,-2.874664 V 40.381133 q 0,-1.493332 0.336,-2.874664 0.336,-1.381332 1.344,-2.426665 1.008,-1.082666 2.8,-1.717332 1.82933,-0.634666 4.81599,-0.634666 z m 33.17596,8.773326 h -7.24266 v -0.261333 q 0,-1.493332 -0.26133,-2.351998 -0.224,-0.858666 -1.344,-0.858666 -0.70933,0 -1.12,0.485333 -0.37333,0.448 -0.37333,1.306665 0,0.448 0.112,0.784 0.112,0.336 0.41066,0.597333 0.29867,0.261333 0.82134,0.485333 0.52266,0.223999 1.344,0.447999 l 2.20266,0.634666 q 1.792,0.522667 2.98666,1.157333 1.19467,0.597332 1.904,1.493332 0.74667,0.895999 1.04534,2.127998 0.29866,1.231999 0.29866,2.911997 0,4.18133 -2.27733,6.159995 -2.27733,1.941332 -7.13066,1.941332 -1.41867,0 -2.61333,-0.149333 -1.15733,-0.112 -2.27733,-0.410667 -1.08267,-0.335999 -2.128,-0.821332 -1.04533,-0.485333 -2.16533,-1.231999 v -6.981328 h 7.54132 v 0.672 q 0,1.679998 0.224,2.613331 0.26134,0.895999 1.38134,0.895999 0.85866,0 1.19466,-0.559999 0.37334,-0.597333 0.37334,-1.530666 0,-0.634666 -0.14934,-1.082666 -0.14933,-0.447999 -0.56,-0.783999 -0.41066,-0.336 -1.15733,-0.597333 -0.70933,-0.298666 -1.904,-0.634666 -1.904,-0.522666 -3.28533,-1.045332 -1.38133,-0.522666 -2.27733,-1.306666 -0.896,-0.821332 -1.344,-2.053331 -0.41067,-1.269333 -0.41067,-3.210664 0,-3.919997 2.128,-5.786662 2.16533,-1.903998 6.98133,-1.903998 2.576,0 4.704,0.634666 2.16533,0.597333 4.36799,2.015998 z"
     id="text1-1"
     aria-label="AMOS" /></svg>
