<?xml version="1.0" encoding="UTF-8" standalone="no"?>
<svg
   width="275.49866"
   height="64.054688"
   viewBox="0 0 275.49866 64.054688"
   fill="none"
   version="1.1"
   id="svg1"
   xml:space="preserve"
   sodipodi:docname="logo-amos.svg"
   inkscape:version="1.4 (86a8ad7, 2024-10-11)"
   xmlns:inkscape="http://www.inkscape.org/namespaces/inkscape"
   xmlns:sodipodi="http://sodipodi.sourceforge.net/DTD/sodipodi-0.dtd"
   xmlns="http://www.w3.org/2000/svg"
   xmlns:svg="http://www.w3.org/2000/svg"><sodipodi:namedview
     id="namedview1"
     pagecolor="#ffffff"
     bordercolor="#666666"
     borderopacity="1.0"
     inkscape:showpageshadow="2"
     inkscape:pageopacity="0.0"
     inkscape:pagecheckerboard="0"
     inkscape:deskcolor="#d1d1d1"
     inkscape:zoom="3.2232462"
     inkscape:cx="150.46942"
     inkscape:cy="38.005164"
     inkscape:window-width="1920"
     inkscape:window-height="1009"
     inkscape:window-x="1912"
     inkscape:window-y="-8"
     inkscape:window-maximized="1"
     inkscape:current-layer="svg1" /><defs
     id="defs1" /><path
     id="rect1-5"
     style="fill:#424242;stroke:none;stroke-width:1.01454;fill-opacity:1"
     d="M 2.3144407,-2.0009453e-6 C 1.0319007,-2.0009453e-6 -9.2646864e-6,1.031908 -9.2646864e-6,2.314458 v 59.42578 c 0,1.28255 1.0319100646864,2.31445 2.3144499646864,2.31445 H 61.738271 c 1.28255,0 2.31446,-1.0319 2.31446,-2.31445 V 2.314458 c 0,-1.28255 -1.03191,-2.3144600009453 -2.31446,-2.3144600009453 z M 26.648431,3.728518 c 1.55189,0.009 3.47604,0.95751 3.67969,2.12305 0.0764,0.43749 -0.0932,0.23649 -0.13672,0.66015 -0.17939,1.74904 0.98626,4.11275 -1.64844,4.84375 -0.37289,0.10346 -0.29954,0.66099 -0.19531,1.18164 0.13622,0.68049 0.27616,1.3732 0.75781,1.55664 1.26718,0.48263 2.56661,0.83942 3.74414,2.5625 0.86146,1.26058 1.02938,2.78953 1.23438,4.08399 0.2061,1.30147 0.44726,2.36523 0.44726,2.36523 0.30904,2.07667 1.25575,5.1697 1.93945,7.58203 0.12836,0.45292 0.734,0.71571 0.8379,1.10938 0.17839,0.67591 0.24447,2.63371 0.24023,3.0664 -10e-4,0.13064 0.77463,0.89607 1.82617,1.41993 1.01309,0.50469 1.55254,0.6471 1.93945,0.69336 0.76736,0.0918 1.19212,-0.87591 0.89454,-1.16993 -0.34717,-0.34301 -0.5651,-0.19024 -1.22461,-1.13867 -0.34697,-0.49896 0.0204,-1.96607 -0.0606,-2.13086 -0.24812,-0.50522 -0.09,-0.24251 -0.25781,-0.67968 -0.11677,-0.30423 0.30305,-0.96895 0.46289,-1.25 0.31769,-0.55864 1.08697,-0.81027 2.02539,-0.84571 0.6539,-0.0247 2.06717,0.26492 2.60742,1.21485 0.53459,0.93996 0.53755,2.52336 0.0957,3.49023 -0.27438,0.60044 -0.83324,1.02587 -0.98047,2.28906 -0.0845,0.7248 1.07192,1.04992 2.31446,3.05664 0.28744,0.46422 0.78929,2.38268 1.70508,4.23047 0.92151,1.85933 1.82737,3.83852 1.93164,4.34375 0.0571,0.27655 -0.28865,0.77951 -0.75782,0.55664 -0.48798,-0.2318 -0.44548,-0.54337 -0.46289,-0.71093 -0.0611,-0.58788 -0.96798,-2.16219 -1.73242,-3.4629 -0.4532,-0.77111 -0.78458,-1.47348 -1.05469,-1.74023 -0.4143,-0.40916 0.71626,5.40666 0.94922,5.92969 -0.40768,0.0755 -0.45668,0.18232 -1.16992,0.38281 -0.25529,0.0718 0.30315,1.72268 0.62891,3.50781 0.24309,1.33212 0.32933,2.60581 0.31054,2.8418 -0.0104,0.12998 0.87257,-0.34257 1.0918,0.0547 0.1314,0.2381 -0.17829,1.01077 -0.42383,1.3164 -0.34363,0.42771 -0.83198,0.88406 -1.03906,0.72266 -0.46229,-0.36031 -1.54744,-3.49682 -1.86914,-4.23828 -0.78121,-1.80054 -1.56369,-3.54413 -2.22266,-3.60156 -0.1279,-0.0112 -0.3924,1.29382 -0.31836,2.81835 0.11566,2.38159 0.54753,4.63188 0.44727,5.45313 -0.0745,0.61058 -0.28351,0.6633 -0.75781,0.91211 -0.47954,0.25156 -1.26689,-0.21383 -1.58985,-0.44727 -0.54117,-0.39118 -1.11289,-0.94287 -0.82617,-1.30273 0.26745,-0.33568 1.36254,0.018 1.29297,-0.37109 -0.0989,-0.5533 -1.54287,-5.42353 -1.64258,-7.3711 -1.00065,-0.69161 -2.13867,-1.00781 -2.13867,-1.00781 0,0 0.49836,-1.94298 1.05273,-3.99805 0.54281,-2.01224 0.86028,-3.68203 0.85938,-3.89843 -0.004,-1.05866 -0.65959,-2.21527 -1.02148,-2.54102 -1.08119,-0.9732 -2.1,-2.54596 -2.18555,-2.67774 -0.23942,-0.36876 0.24688,-1.65845 -0.18164,-2.25976 -0.72751,-1.02087 -0.42591,-1.52138 -0.54688,-1.77148 0,0 -1.86698,-2.38382 -2.52929,-3.73243 -0.72204,-1.47024 -1.53321,-4.66797 -1.53321,-4.66797 l 0.19336,5.06055 c 0,0 -0.13454,3.51916 -0.0156,5.39453 0.0157,0.24717 -0.68946,0.48438 -0.68946,0.48438 0,0 0.24064,5.18146 0.17383,7.56836 -0.0796,2.84253 -0.67969,8.57226 -0.67969,8.57226 0,0 1.19854,0.14357 1.53125,0.48438 0.52157,0.53425 0.62219,0.98399 -2.93164,4.61914 -0.67579,0.69125 -1.56999,-0.46145 -1.65625,-2.54297 -0.26532,-6.40219 0.88044,-10.82673 -2.14453,-17.96289 -0.23201,8.31251 -0.96037,18.64287 -1.15429,21.19336 -0.0699,0.91969 -0.65229,3.79714 -2.31055,3.37109 -0.24296,-0.0624 -0.45703,-0.42773 -0.45703,-0.42773 l -2.24805,-3.94727 c -0.38868,-0.68293 0.0931,-1.8017 0.61524,-1.73828 0.53143,0.0645 1.04705,0.53394 1.03906,-0.0469 -0.0105,-0.7637 -0.17658,-4.96892 -0.44336,-9.41211 -0.24863,-4.14099 -0.43489,-7.47342 -0.63281,-10.41016 -0.3083,-0.0309 -0.75816,0.0161 -0.75977,-0.14844 -0.0502,-5.13423 0.91009,-10.16573 0.625,-12.13281 -1.72922,3.9137 -4.13433,10.16452 -4.02148,12.43555 0.13332,2.68287 -2.3462,1.9272 -2.27149,0.82422 0.0599,-0.88439 0.17421,-0.74074 0.33008,-1.46094 0.24269,-1.1213 0.36997,-3.10527 0.59766,-4.03125 0.589,-2.39542 0.32173,-1.04598 1.07421,-4.29883 0.67605,-2.92244 1.52212,-5.45637 1.75586,-6.18359 0.66175,-2.05881 1.58494,-3.03054 2.07422,-3.5 0.92545,-0.88796 5.06543,-1.1397 5.33985,-1.76172 -0.0177,0.0402 1.05386,-2.12966 -0.66407,-3.90625 -0.94611,-0.97841 -0.49311,-4.41059 1.93164,-5.29688 0.29269,-0.10698 0.63211,-0.15443 0.99024,-0.15234 z" /><text
     xml:space="preserve"
     style="font-size:25.3333px;line-height:1.25;font-family:Acumin;-inkscape-font-specification:Acumin;text-align:center;letter-spacing:2.62px;text-anchor:middle;fill:#424242;fill-opacity:1"
     x="173.42473"
     y="21.762041"
     id="text4-1"><tspan
       id="tspan4-7"
       x="174.73473"
       y="21.762041"
       style="font-style:normal;font-variant:normal;font-weight:normal;font-stretch:normal;font-size:25.3333px;line-height:1.25;font-family:'ITC Flora';-inkscape-font-specification:'ITC Flora';letter-spacing:2.62px;fill:#424242;fill-opacity:1">Stowarzyszenie</tspan></text><text
     xml:space="preserve"
     style="font-size:37.3333px;line-height:1.25;font-family:Acumin;-inkscape-font-specification:Acumin;text-align:center;letter-spacing:2.6px;text-anchor:middle;fill:#424242;fill-opacity:1"
     x="120.70947"
     y="58.077118"
     id="text1-1"><tspan
       id="tspan1-1"
       x="122.00945"
       y="58.077118"
       style="font-style:normal;font-variant:normal;font-weight:bold;font-stretch:normal;font-size:37.3333px;font-family:'Neue Aachen Pro';-inkscape-font-specification:'Neue Aachen Pro Bold';letter-spacing:2.6px;fill:#424242;fill-opacity:1">AMOS</tspan></text></svg>
